<mxfile host="app.diagrams.net" agent="Mozilla/5.0 (Windows NT 10.0; Win64; x64; rv:128.0) Gecko/20100101 Firefox/128.0" version="24.7.6">
  <diagram name="Page-1" id="MoUpNcf19xc31E_skg1A">
    <mxGraphModel dx="1254" dy="695" grid="1" gridSize="10" guides="1" tooltips="1" connect="1" arrows="1" fold="1" page="1" pageScale="1" pageWidth="850" pageHeight="1100" math="0" shadow="0">
      <root>
        <mxCell id="0" />
        <mxCell id="1" parent="0" />
        <mxCell id="ionqRGrCN8myQI989uEd-1" value="" style="html=1;shadow=0;dashed=0;shape=mxgraph.bootstrap.rect;fillColor=#222222;strokeColor=none;whiteSpace=wrap;rounded=0;fontSize=12;fontColor=#000000;align=center;" vertex="1" parent="1">
          <mxGeometry x="40" y="70" width="1150" height="40" as="geometry" />
        </mxCell>
        <mxCell id="ionqRGrCN8myQI989uEd-2" value="Hospital+ Home" style="html=1;shadow=0;dashed=0;fillColor=none;strokeColor=none;shape=mxgraph.bootstrap.rect;fontColor=#999999;fontSize=14;whiteSpace=wrap;" vertex="1" parent="ionqRGrCN8myQI989uEd-1">
          <mxGeometry width="130" height="40" as="geometry" />
        </mxCell>
        <mxCell id="ionqRGrCN8myQI989uEd-3" value="Patient Records" style="html=1;shadow=0;dashed=0;shape=mxgraph.bootstrap.rect;fillColor=#000000;strokeColor=none;fontColor=#ffffff;spacingRight=0;whiteSpace=wrap;align=center;" vertex="1" parent="ionqRGrCN8myQI989uEd-1">
          <mxGeometry x="130" width="140" height="40" as="geometry" />
        </mxCell>
        <mxCell id="ionqRGrCN8myQI989uEd-4" value="Insurance Providers" style="html=1;shadow=0;dashed=0;fillColor=none;strokeColor=none;shape=mxgraph.bootstrap.rect;fontColor=#999999;spacingRight=0;whiteSpace=wrap;" vertex="1" parent="ionqRGrCN8myQI989uEd-1">
          <mxGeometry x="270" width="150" height="40" as="geometry" />
        </mxCell>
        <mxCell id="ionqRGrCN8myQI989uEd-5" value="Procedure Records" style="html=1;shadow=0;dashed=0;fillColor=none;strokeColor=none;shape=mxgraph.bootstrap.rect;fontColor=#999999;whiteSpace=wrap;" vertex="1" parent="ionqRGrCN8myQI989uEd-1">
          <mxGeometry x="570" width="150" height="40" as="geometry" />
        </mxCell>
        <mxCell id="ionqRGrCN8myQI989uEd-6" value="Household Records" style="html=1;shadow=0;dashed=0;fillColor=none;strokeColor=none;shape=mxgraph.bootstrap.rect;fontColor=#999999;whiteSpace=wrap;" vertex="1" parent="ionqRGrCN8myQI989uEd-1">
          <mxGeometry x="420" width="150" height="40" as="geometry" />
        </mxCell>
        <mxCell id="ionqRGrCN8myQI989uEd-7" value="My Accout" style="html=1;shadow=0;dashed=0;fillColor=none;strokeColor=none;shape=mxgraph.bootstrap.rect;fontColor=#999999;whiteSpace=wrap;" vertex="1" parent="ionqRGrCN8myQI989uEd-1">
          <mxGeometry x="970" width="89.38" height="40" as="geometry" />
        </mxCell>
        <mxCell id="ionqRGrCN8myQI989uEd-8" value="Log Out" style="html=1;shadow=0;dashed=0;fillColor=none;strokeColor=none;shape=mxgraph.bootstrap.rect;fontColor=#999999;whiteSpace=wrap;" vertex="1" parent="ionqRGrCN8myQI989uEd-1">
          <mxGeometry x="1049.375" width="100.625" height="40" as="geometry" />
        </mxCell>
        <mxCell id="ionqRGrCN8myQI989uEd-9" value="Invoices" style="html=1;shadow=0;dashed=0;fillColor=none;strokeColor=none;shape=mxgraph.bootstrap.rect;fontColor=#999999;whiteSpace=wrap;" vertex="1" parent="ionqRGrCN8myQI989uEd-1">
          <mxGeometry x="720" width="90" height="40" as="geometry" />
        </mxCell>
        <mxCell id="ionqRGrCN8myQI989uEd-10" value="" style="html=1;shadow=0;dashed=0;shape=mxgraph.bootstrap.rrect;rSize=5;strokeColor=#dddddd;rounded=0;fontSize=12;align=center;container=0;" vertex="1" parent="1">
          <mxGeometry x="860" y="150" width="330" height="350" as="geometry" />
        </mxCell>
        <mxCell id="ionqRGrCN8myQI989uEd-11" value="Firstname &lt;font color=&quot;#cc0000&quot;&gt;*&lt;/font&gt;" style="html=1;shadow=0;dashed=0;shape=mxgraph.bootstrap.rect;strokeColor=none;fillColor=none;fontColor=#999999;align=left;spacingLeft=5;whiteSpace=wrap;rounded=0;" vertex="1" parent="1">
          <mxGeometry x="40" y="270" width="160" height="20" as="geometry" />
        </mxCell>
        <mxCell id="ionqRGrCN8myQI989uEd-12" value="Sam" style="html=1;shadow=0;dashed=0;shape=mxgraph.bootstrap.rrect;rSize=5;strokeColor=#dddddd;;align=left;spacingLeft=10;fontSize=16;whiteSpace=wrap;rounded=0;" vertex="1" parent="1">
          <mxGeometry x="40" y="290" width="280" height="40" as="geometry" />
        </mxCell>
        <mxCell id="ionqRGrCN8myQI989uEd-13" value="" style="html=1;shadow=0;dashed=0;shape=mxgraph.bootstrap.rrect;rSize=5;strokeColor=#dddddd;rounded=0;fontSize=12;align=center;container=0;" vertex="1" parent="1">
          <mxGeometry x="40" y="960" width="350" height="430" as="geometry" />
        </mxCell>
        <mxCell id="ionqRGrCN8myQI989uEd-14" value="&lt;font color=&quot;#006600&quot; size=&quot;1&quot; face=&quot;Verdana&quot;&gt;&lt;b&gt;&lt;span style=&quot;line-height: 107%; font-size: 36px;&quot; lang=&quot;EN-US&quot;&gt;Hospital&lt;/span&gt;&lt;/b&gt;&lt;/font&gt;&lt;font color=&quot;#ff0000&quot; size=&quot;1&quot; face=&quot;Verdana&quot;&gt;&lt;b&gt;&lt;span style=&quot;line-height: 107%; font-size: 36px;&quot; lang=&quot;EN-US&quot;&gt;+&lt;/span&gt;&lt;/b&gt;&lt;/font&gt;&lt;font style=&quot;font-size: 16px;&quot; color=&quot;#404040&quot; face=&quot;Verdana&quot;&gt;&lt;b&gt;&lt;span style=&quot;line-height: 107%;&quot; lang=&quot;EN-US&quot;&gt; &lt;/span&gt;&lt;/b&gt;&lt;/font&gt;&lt;font color=&quot;#006633&quot; face=&quot;Helvetica&quot; style=&quot;font-size: 16px;&quot;&gt;&lt;b&gt;&lt;span style=&quot;line-height: 107%;&quot; lang=&quot;EN-US&quot;&gt;Internal Use&lt;/span&gt;&lt;/b&gt;&lt;/font&gt;&lt;font color=&quot;#006633&quot; face=&quot;78X5YPvjpM8C-Wn7vtfY&quot; style=&quot;font-size: 16px;&quot;&gt;&lt;b&gt;&lt;span style=&quot;line-height: 107%;&quot; lang=&quot;EN-US&quot;&gt;&lt;br&gt;&lt;/span&gt;&lt;/b&gt;&lt;/font&gt;" style="text;html=1;align=center;verticalAlign=middle;whiteSpace=wrap;rounded=0;fillColor=#f5f5f5;strokeColor=#666666;fontColor=#333333;" vertex="1" parent="1">
          <mxGeometry x="40" y="20" width="1150" height="50" as="geometry" />
        </mxCell>
        <mxCell id="ionqRGrCN8myQI989uEd-15" value="&lt;font style=&quot;font-size: 14px;&quot; face=&quot;Verdana&quot; color=&quot;#006600&quot;&gt;&lt;b&gt;1. Search Patient&lt;br&gt;&lt;/b&gt;&lt;/font&gt;" style="text;html=1;align=left;verticalAlign=middle;whiteSpace=wrap;rounded=0;" vertex="1" parent="1">
          <mxGeometry x="40" y="220" width="800" height="40" as="geometry" />
        </mxCell>
        <mxCell id="ionqRGrCN8myQI989uEd-16" value="" style="strokeWidth=1;shadow=0;dashed=0;align=center;html=1;shape=mxgraph.mockup.forms.rrect;rSize=5;strokeColor=#999999;fillColor=#ffffff;" vertex="1" parent="1">
          <mxGeometry x="560" y="280" width="280" height="200" as="geometry" />
        </mxCell>
        <mxCell id="ionqRGrCN8myQI989uEd-17" value="October 1973" style="strokeWidth=1;shadow=0;dashed=0;align=center;html=1;shape=mxgraph.mockup.forms.anchor;fontColor=#999999;" vertex="1" parent="ionqRGrCN8myQI989uEd-16">
          <mxGeometry x="52.5" y="9.142857142857142" width="174.99999999999997" height="22.85714285714285" as="geometry" />
        </mxCell>
        <mxCell id="ionqRGrCN8myQI989uEd-18" value="&lt;" style="strokeWidth=1;shadow=0;dashed=0;align=center;html=1;shape=mxgraph.mockup.forms.rrect;rSize=4;strokeColor=#999999;fontColor=#008cff;fontSize=19;fontStyle=1;" vertex="1" parent="ionqRGrCN8myQI989uEd-16">
          <mxGeometry x="14" y="9.142857142857142" width="43.74999999999999" height="22.85714285714285" as="geometry" />
        </mxCell>
        <mxCell id="ionqRGrCN8myQI989uEd-19" value="&gt;" style="strokeWidth=1;shadow=0;dashed=0;align=center;html=1;shape=mxgraph.mockup.forms.rrect;rSize=4;strokeColor=#999999;fontColor=#008cff;fontSize=19;fontStyle=1;" vertex="1" parent="ionqRGrCN8myQI989uEd-16">
          <mxGeometry x="222.25" y="9.142857142857142" width="43.74999999999999" height="22.85714285714285" as="geometry" />
        </mxCell>
        <mxCell id="ionqRGrCN8myQI989uEd-20" value="Mo" style="strokeWidth=1;shadow=0;dashed=0;align=center;html=1;shape=mxgraph.mockup.forms.anchor;fontColor=#999999;" vertex="1" parent="ionqRGrCN8myQI989uEd-16">
          <mxGeometry x="17.5" y="31.999999999999993" width="35" height="22.85714285714285" as="geometry" />
        </mxCell>
        <mxCell id="ionqRGrCN8myQI989uEd-21" value="Tu" style="strokeWidth=1;shadow=0;dashed=0;align=center;html=1;shape=mxgraph.mockup.forms.anchor;fontColor=#999999;" vertex="1" parent="ionqRGrCN8myQI989uEd-16">
          <mxGeometry x="52.5" y="31.999999999999993" width="35" height="22.85714285714285" as="geometry" />
        </mxCell>
        <mxCell id="ionqRGrCN8myQI989uEd-22" value="We" style="strokeWidth=1;shadow=0;dashed=0;align=center;html=1;shape=mxgraph.mockup.forms.anchor;fontColor=#999999;" vertex="1" parent="ionqRGrCN8myQI989uEd-16">
          <mxGeometry x="87.49999999999999" y="31.999999999999993" width="35" height="22.85714285714285" as="geometry" />
        </mxCell>
        <mxCell id="ionqRGrCN8myQI989uEd-23" value="Th" style="strokeWidth=1;shadow=0;dashed=0;align=center;html=1;shape=mxgraph.mockup.forms.anchor;fontColor=#999999;" vertex="1" parent="ionqRGrCN8myQI989uEd-16">
          <mxGeometry x="122.49999999999999" y="31.999999999999993" width="35" height="22.85714285714285" as="geometry" />
        </mxCell>
        <mxCell id="ionqRGrCN8myQI989uEd-24" value="Fr" style="strokeWidth=1;shadow=0;dashed=0;align=center;html=1;shape=mxgraph.mockup.forms.anchor;fontColor=#999999;" vertex="1" parent="ionqRGrCN8myQI989uEd-16">
          <mxGeometry x="157.5" y="31.999999999999993" width="35" height="22.85714285714285" as="geometry" />
        </mxCell>
        <mxCell id="ionqRGrCN8myQI989uEd-25" value="Sa" style="strokeWidth=1;shadow=0;dashed=0;align=center;html=1;shape=mxgraph.mockup.forms.anchor;fontColor=#999999;" vertex="1" parent="ionqRGrCN8myQI989uEd-16">
          <mxGeometry x="192.5" y="31.999999999999993" width="35" height="22.85714285714285" as="geometry" />
        </mxCell>
        <mxCell id="ionqRGrCN8myQI989uEd-26" value="Su" style="strokeWidth=1;shadow=0;dashed=0;align=center;html=1;shape=mxgraph.mockup.forms.anchor;fontColor=#999999;" vertex="1" parent="ionqRGrCN8myQI989uEd-16">
          <mxGeometry x="227.49999999999997" y="31.999999999999993" width="35" height="22.85714285714285" as="geometry" />
        </mxCell>
        <mxCell id="ionqRGrCN8myQI989uEd-27" value="1" style="strokeWidth=1;shadow=0;dashed=0;align=center;html=1;shape=mxgraph.mockup.forms.rrect;rSize=0;strokeColor=#999999;fontColor=#999999;" vertex="1" parent="ionqRGrCN8myQI989uEd-16">
          <mxGeometry x="17.5" y="54.85714285714285" width="35" height="22.85714285714285" as="geometry" />
        </mxCell>
        <mxCell id="ionqRGrCN8myQI989uEd-28" value="2" style="strokeWidth=1;shadow=0;dashed=0;align=center;html=1;shape=mxgraph.mockup.forms.rrect;rSize=0;strokeColor=#999999;fontColor=#999999;" vertex="1" parent="ionqRGrCN8myQI989uEd-16">
          <mxGeometry x="52.5" y="54.85714285714285" width="35" height="22.85714285714285" as="geometry" />
        </mxCell>
        <mxCell id="ionqRGrCN8myQI989uEd-29" value="3" style="strokeWidth=1;shadow=0;dashed=0;align=center;html=1;shape=mxgraph.mockup.forms.rrect;rSize=0;strokeColor=#999999;fontColor=#999999;" vertex="1" parent="ionqRGrCN8myQI989uEd-16">
          <mxGeometry x="87.49999999999999" y="54.85714285714285" width="35" height="22.85714285714285" as="geometry" />
        </mxCell>
        <mxCell id="ionqRGrCN8myQI989uEd-30" value="4" style="strokeWidth=1;shadow=0;dashed=0;align=center;html=1;shape=mxgraph.mockup.forms.rrect;rSize=0;strokeColor=#999999;fontColor=#999999;" vertex="1" parent="ionqRGrCN8myQI989uEd-16">
          <mxGeometry x="122.49999999999999" y="54.85714285714285" width="35" height="22.85714285714285" as="geometry" />
        </mxCell>
        <mxCell id="ionqRGrCN8myQI989uEd-31" value="5" style="strokeWidth=1;shadow=0;dashed=0;align=center;html=1;shape=mxgraph.mockup.forms.rrect;rSize=0;strokeColor=#999999;fontColor=#999999;" vertex="1" parent="ionqRGrCN8myQI989uEd-16">
          <mxGeometry x="157.5" y="54.85714285714285" width="35" height="22.85714285714285" as="geometry" />
        </mxCell>
        <mxCell id="ionqRGrCN8myQI989uEd-32" value="6" style="strokeWidth=1;shadow=0;dashed=0;align=center;html=1;shape=mxgraph.mockup.forms.rrect;rSize=0;strokeColor=#999999;fontColor=#999999;" vertex="1" parent="ionqRGrCN8myQI989uEd-16">
          <mxGeometry x="192.5" y="54.85714285714285" width="35" height="22.85714285714285" as="geometry" />
        </mxCell>
        <mxCell id="ionqRGrCN8myQI989uEd-33" value="7" style="strokeWidth=1;shadow=0;dashed=0;align=center;html=1;shape=mxgraph.mockup.forms.rrect;rSize=0;strokeColor=#999999;fontColor=#999999;" vertex="1" parent="ionqRGrCN8myQI989uEd-16">
          <mxGeometry x="227.49999999999997" y="54.85714285714285" width="35" height="22.85714285714285" as="geometry" />
        </mxCell>
        <mxCell id="ionqRGrCN8myQI989uEd-34" value="8" style="strokeWidth=1;shadow=0;dashed=0;align=center;html=1;shape=mxgraph.mockup.forms.rrect;rSize=0;strokeColor=#999999;fontColor=#999999;" vertex="1" parent="ionqRGrCN8myQI989uEd-16">
          <mxGeometry x="17.5" y="77.71428571428571" width="35" height="22.85714285714285" as="geometry" />
        </mxCell>
        <mxCell id="ionqRGrCN8myQI989uEd-35" value="9" style="strokeWidth=1;shadow=0;dashed=0;align=center;html=1;shape=mxgraph.mockup.forms.rrect;rSize=0;strokeColor=#999999;fontColor=#999999;" vertex="1" parent="ionqRGrCN8myQI989uEd-16">
          <mxGeometry x="52.5" y="77.71428571428571" width="35" height="22.85714285714285" as="geometry" />
        </mxCell>
        <mxCell id="ionqRGrCN8myQI989uEd-36" value="10" style="strokeWidth=1;shadow=0;dashed=0;align=center;html=1;shape=mxgraph.mockup.forms.rrect;rSize=0;strokeColor=#999999;fontColor=#999999;" vertex="1" parent="ionqRGrCN8myQI989uEd-16">
          <mxGeometry x="87.49999999999999" y="77.71428571428571" width="35" height="22.85714285714285" as="geometry" />
        </mxCell>
        <mxCell id="ionqRGrCN8myQI989uEd-37" value="11" style="strokeWidth=1;shadow=0;dashed=0;align=center;html=1;shape=mxgraph.mockup.forms.rrect;rSize=0;strokeColor=#999999;fontColor=#999999;" vertex="1" parent="ionqRGrCN8myQI989uEd-16">
          <mxGeometry x="122.49999999999999" y="77.71428571428571" width="35" height="22.85714285714285" as="geometry" />
        </mxCell>
        <mxCell id="ionqRGrCN8myQI989uEd-38" value="12" style="strokeWidth=1;shadow=0;dashed=0;align=center;html=1;shape=mxgraph.mockup.forms.rrect;rSize=0;strokeColor=#999999;fontColor=#999999;" vertex="1" parent="ionqRGrCN8myQI989uEd-16">
          <mxGeometry x="157.5" y="77.71428571428571" width="35" height="22.85714285714285" as="geometry" />
        </mxCell>
        <mxCell id="ionqRGrCN8myQI989uEd-39" value="13" style="strokeWidth=1;shadow=0;dashed=0;align=center;html=1;shape=mxgraph.mockup.forms.rrect;rSize=0;strokeColor=#999999;fontColor=#999999;" vertex="1" parent="ionqRGrCN8myQI989uEd-16">
          <mxGeometry x="192.5" y="77.71428571428571" width="35" height="22.85714285714285" as="geometry" />
        </mxCell>
        <mxCell id="ionqRGrCN8myQI989uEd-40" value="14" style="strokeWidth=1;shadow=0;dashed=0;align=center;html=1;shape=mxgraph.mockup.forms.rrect;rSize=0;strokeColor=#999999;fontColor=#999999;" vertex="1" parent="ionqRGrCN8myQI989uEd-16">
          <mxGeometry x="227.49999999999997" y="77.71428571428571" width="35" height="22.85714285714285" as="geometry" />
        </mxCell>
        <mxCell id="ionqRGrCN8myQI989uEd-41" value="15" style="strokeWidth=1;shadow=0;dashed=0;align=center;html=1;shape=mxgraph.mockup.forms.rrect;rSize=0;strokeColor=#999999;fontColor=#999999;" vertex="1" parent="ionqRGrCN8myQI989uEd-16">
          <mxGeometry x="17.5" y="100.57142857142853" width="35" height="22.85714285714285" as="geometry" />
        </mxCell>
        <mxCell id="ionqRGrCN8myQI989uEd-42" value="16" style="strokeWidth=1;shadow=0;dashed=0;align=center;html=1;shape=mxgraph.mockup.forms.rrect;rSize=0;strokeColor=#999999;fontColor=#999999;" vertex="1" parent="ionqRGrCN8myQI989uEd-16">
          <mxGeometry x="52.5" y="100.57142857142853" width="35" height="22.85714285714285" as="geometry" />
        </mxCell>
        <mxCell id="ionqRGrCN8myQI989uEd-43" value="17" style="strokeWidth=1;shadow=0;dashed=0;align=center;html=1;shape=mxgraph.mockup.forms.rrect;rSize=0;strokeColor=#999999;fontColor=#999999;" vertex="1" parent="ionqRGrCN8myQI989uEd-16">
          <mxGeometry x="87.49999999999999" y="100.57142857142853" width="35" height="22.85714285714285" as="geometry" />
        </mxCell>
        <mxCell id="ionqRGrCN8myQI989uEd-44" value="18" style="strokeWidth=1;shadow=0;dashed=0;align=center;html=1;shape=mxgraph.mockup.forms.rrect;rSize=0;strokeColor=#999999;fontColor=#999999;" vertex="1" parent="ionqRGrCN8myQI989uEd-16">
          <mxGeometry x="122.49999999999999" y="100.57142857142853" width="35" height="22.85714285714285" as="geometry" />
        </mxCell>
        <mxCell id="ionqRGrCN8myQI989uEd-45" value="19" style="strokeWidth=1;shadow=0;dashed=0;align=center;html=1;shape=mxgraph.mockup.forms.rrect;rSize=0;strokeColor=#999999;fontColor=#999999;" vertex="1" parent="ionqRGrCN8myQI989uEd-16">
          <mxGeometry x="157.5" y="100.57142857142853" width="35" height="22.85714285714285" as="geometry" />
        </mxCell>
        <mxCell id="ionqRGrCN8myQI989uEd-46" value="20" style="strokeWidth=1;shadow=0;dashed=0;align=center;html=1;shape=mxgraph.mockup.forms.rrect;rSize=0;strokeColor=#999999;fontColor=#999999;" vertex="1" parent="ionqRGrCN8myQI989uEd-16">
          <mxGeometry x="192.5" y="100.57142857142853" width="35" height="22.85714285714285" as="geometry" />
        </mxCell>
        <mxCell id="ionqRGrCN8myQI989uEd-47" value="21" style="strokeWidth=1;shadow=0;dashed=0;align=center;html=1;shape=mxgraph.mockup.forms.rrect;rSize=0;strokeColor=#999999;fontColor=#999999;" vertex="1" parent="ionqRGrCN8myQI989uEd-16">
          <mxGeometry x="227.49999999999997" y="100.57142857142853" width="35" height="22.85714285714285" as="geometry" />
        </mxCell>
        <mxCell id="ionqRGrCN8myQI989uEd-48" value="22" style="strokeWidth=1;shadow=0;dashed=0;align=center;html=1;shape=mxgraph.mockup.forms.rrect;rSize=0;strokeColor=#999999;fontColor=#999999;" vertex="1" parent="ionqRGrCN8myQI989uEd-16">
          <mxGeometry x="17.5" y="123.42857142857139" width="35" height="22.85714285714285" as="geometry" />
        </mxCell>
        <mxCell id="ionqRGrCN8myQI989uEd-49" value="23" style="strokeWidth=1;shadow=0;dashed=0;align=center;html=1;shape=mxgraph.mockup.forms.rrect;rSize=0;strokeColor=#999999;fontColor=#999999;" vertex="1" parent="ionqRGrCN8myQI989uEd-16">
          <mxGeometry x="52.5" y="123.42857142857139" width="35" height="22.85714285714285" as="geometry" />
        </mxCell>
        <mxCell id="ionqRGrCN8myQI989uEd-50" value="25" style="strokeWidth=1;shadow=0;dashed=0;align=center;html=1;shape=mxgraph.mockup.forms.rrect;rSize=0;strokeColor=#999999;fontColor=#999999;" vertex="1" parent="ionqRGrCN8myQI989uEd-16">
          <mxGeometry x="122.49999999999999" y="123.42857142857139" width="35" height="22.85714285714285" as="geometry" />
        </mxCell>
        <mxCell id="ionqRGrCN8myQI989uEd-51" value="26" style="strokeWidth=1;shadow=0;dashed=0;align=center;html=1;shape=mxgraph.mockup.forms.rrect;rSize=0;strokeColor=#999999;fontColor=#999999;" vertex="1" parent="ionqRGrCN8myQI989uEd-16">
          <mxGeometry x="157.5" y="123.42857142857139" width="35" height="22.85714285714285" as="geometry" />
        </mxCell>
        <mxCell id="ionqRGrCN8myQI989uEd-52" value="27" style="strokeWidth=1;shadow=0;dashed=0;align=center;html=1;shape=mxgraph.mockup.forms.rrect;rSize=0;strokeColor=#999999;fontColor=#999999;" vertex="1" parent="ionqRGrCN8myQI989uEd-16">
          <mxGeometry x="192.5" y="123.42857142857139" width="35" height="22.85714285714285" as="geometry" />
        </mxCell>
        <mxCell id="ionqRGrCN8myQI989uEd-53" value="28" style="strokeWidth=1;shadow=0;dashed=0;align=center;html=1;shape=mxgraph.mockup.forms.rrect;rSize=0;strokeColor=#999999;fontColor=#999999;" vertex="1" parent="ionqRGrCN8myQI989uEd-16">
          <mxGeometry x="227.49999999999997" y="123.42857142857139" width="35" height="22.85714285714285" as="geometry" />
        </mxCell>
        <mxCell id="ionqRGrCN8myQI989uEd-54" value="29" style="strokeWidth=1;shadow=0;dashed=0;align=center;html=1;shape=mxgraph.mockup.forms.rrect;rSize=0;strokeColor=#999999;fontColor=#999999;" vertex="1" parent="ionqRGrCN8myQI989uEd-16">
          <mxGeometry x="17.5" y="146.28571428571428" width="35" height="22.85714285714285" as="geometry" />
        </mxCell>
        <mxCell id="ionqRGrCN8myQI989uEd-55" value="30" style="strokeWidth=1;shadow=0;dashed=0;align=center;html=1;shape=mxgraph.mockup.forms.rrect;rSize=0;strokeColor=#999999;fontColor=#999999;" vertex="1" parent="ionqRGrCN8myQI989uEd-16">
          <mxGeometry x="52.5" y="146.28571428571428" width="35" height="22.85714285714285" as="geometry" />
        </mxCell>
        <mxCell id="ionqRGrCN8myQI989uEd-56" value="31" style="strokeWidth=1;shadow=0;dashed=0;align=center;html=1;shape=mxgraph.mockup.forms.rrect;rSize=0;strokeColor=#999999;fontColor=#999999;" vertex="1" parent="ionqRGrCN8myQI989uEd-16">
          <mxGeometry x="87.49999999999999" y="146.28571428571428" width="35" height="22.85714285714285" as="geometry" />
        </mxCell>
        <mxCell id="ionqRGrCN8myQI989uEd-57" value="1" style="strokeWidth=1;shadow=0;dashed=0;align=center;html=1;shape=mxgraph.mockup.forms.rrect;rSize=0;strokeColor=#999999;fontColor=#999999;fillColor=#ddeeff;" vertex="1" parent="ionqRGrCN8myQI989uEd-16">
          <mxGeometry x="122.49999999999999" y="146.28571428571428" width="35" height="22.85714285714285" as="geometry" />
        </mxCell>
        <mxCell id="ionqRGrCN8myQI989uEd-58" value="2" style="strokeWidth=1;shadow=0;dashed=0;align=center;html=1;shape=mxgraph.mockup.forms.rrect;rSize=0;strokeColor=#999999;fontColor=#999999;fillColor=#ddeeff;" vertex="1" parent="ionqRGrCN8myQI989uEd-16">
          <mxGeometry x="157.5" y="146.28571428571428" width="35" height="22.85714285714285" as="geometry" />
        </mxCell>
        <mxCell id="ionqRGrCN8myQI989uEd-59" value="3" style="strokeWidth=1;shadow=0;dashed=0;align=center;html=1;shape=mxgraph.mockup.forms.rrect;rSize=0;strokeColor=#999999;fontColor=#999999;fillColor=#ddeeff;" vertex="1" parent="ionqRGrCN8myQI989uEd-16">
          <mxGeometry x="192.5" y="146.28571428571428" width="35" height="22.85714285714285" as="geometry" />
        </mxCell>
        <mxCell id="ionqRGrCN8myQI989uEd-60" value="4" style="strokeWidth=1;shadow=0;dashed=0;align=center;html=1;shape=mxgraph.mockup.forms.rrect;rSize=0;strokeColor=#999999;fontColor=#999999;fillColor=#ddeeff;" vertex="1" parent="ionqRGrCN8myQI989uEd-16">
          <mxGeometry x="227.49999999999997" y="146.28571428571428" width="35" height="22.85714285714285" as="geometry" />
        </mxCell>
        <mxCell id="ionqRGrCN8myQI989uEd-61" value="5" style="strokeWidth=1;shadow=0;dashed=0;align=center;html=1;shape=mxgraph.mockup.forms.rrect;rSize=0;strokeColor=#999999;fontColor=#999999;fillColor=#ddeeff;" vertex="1" parent="ionqRGrCN8myQI989uEd-16">
          <mxGeometry x="17.5" y="169.14285714285714" width="35" height="22.85714285714285" as="geometry" />
        </mxCell>
        <mxCell id="ionqRGrCN8myQI989uEd-62" value="6" style="strokeWidth=1;shadow=0;dashed=0;align=center;html=1;shape=mxgraph.mockup.forms.rrect;rSize=0;strokeColor=#999999;fontColor=#999999;fillColor=#ddeeff;" vertex="1" parent="ionqRGrCN8myQI989uEd-16">
          <mxGeometry x="52.5" y="169.14285714285714" width="35" height="22.85714285714285" as="geometry" />
        </mxCell>
        <mxCell id="ionqRGrCN8myQI989uEd-63" value="7" style="strokeWidth=1;shadow=0;dashed=0;align=center;html=1;shape=mxgraph.mockup.forms.rrect;rSize=0;strokeColor=#999999;fontColor=#999999;fillColor=#ddeeff;" vertex="1" parent="ionqRGrCN8myQI989uEd-16">
          <mxGeometry x="87.49999999999999" y="169.14285714285714" width="35" height="22.85714285714285" as="geometry" />
        </mxCell>
        <mxCell id="ionqRGrCN8myQI989uEd-64" value="8" style="strokeWidth=1;shadow=0;dashed=0;align=center;html=1;shape=mxgraph.mockup.forms.rrect;rSize=0;strokeColor=#999999;fontColor=#999999;fillColor=#ddeeff;" vertex="1" parent="ionqRGrCN8myQI989uEd-16">
          <mxGeometry x="122.49999999999999" y="169.14285714285714" width="35" height="22.85714285714285" as="geometry" />
        </mxCell>
        <mxCell id="ionqRGrCN8myQI989uEd-65" value="9" style="strokeWidth=1;shadow=0;dashed=0;align=center;html=1;shape=mxgraph.mockup.forms.rrect;rSize=0;strokeColor=#999999;fontColor=#999999;fillColor=#ddeeff;" vertex="1" parent="ionqRGrCN8myQI989uEd-16">
          <mxGeometry x="157.5" y="169.14285714285714" width="35" height="22.85714285714285" as="geometry" />
        </mxCell>
        <mxCell id="ionqRGrCN8myQI989uEd-66" value="10" style="strokeWidth=1;shadow=0;dashed=0;align=center;html=1;shape=mxgraph.mockup.forms.rrect;rSize=0;strokeColor=#999999;fontColor=#999999;fillColor=#ddeeff;" vertex="1" parent="ionqRGrCN8myQI989uEd-16">
          <mxGeometry x="192.5" y="169.14285714285714" width="35" height="22.85714285714285" as="geometry" />
        </mxCell>
        <mxCell id="ionqRGrCN8myQI989uEd-67" value="11" style="strokeWidth=1;shadow=0;dashed=0;align=center;html=1;shape=mxgraph.mockup.forms.rrect;rSize=0;strokeColor=#999999;fontColor=#999999;fillColor=#ddeeff;" vertex="1" parent="ionqRGrCN8myQI989uEd-16">
          <mxGeometry x="227.49999999999997" y="169.14285714285714" width="35" height="22.85714285714285" as="geometry" />
        </mxCell>
        <mxCell id="ionqRGrCN8myQI989uEd-68" value="24" style="strokeWidth=1;shadow=0;align=center;shape=mxgraph.mockup.forms.rrect;rSize=0;strokeColor=none;fontColor=#999999;strokeWidth=2;fillColor=#FFFFFF;html=1;labelBorderColor=none;" vertex="1" parent="ionqRGrCN8myQI989uEd-16">
          <mxGeometry x="93.75" y="126.71" width="22.5" height="16.29" as="geometry" />
        </mxCell>
        <mxCell id="ionqRGrCN8myQI989uEd-69" value="Lastname (Optional)" style="html=1;shadow=0;dashed=0;shape=mxgraph.bootstrap.rect;strokeColor=none;fillColor=none;fontColor=#999999;align=left;spacingLeft=5;whiteSpace=wrap;rounded=0;" vertex="1" parent="1">
          <mxGeometry x="40" y="420" width="120" height="20" as="geometry" />
        </mxCell>
        <mxCell id="ionqRGrCN8myQI989uEd-70" value="Armstrong" style="html=1;shadow=0;dashed=0;shape=mxgraph.bootstrap.rrect;rSize=5;strokeColor=#dddddd;;align=left;spacingLeft=10;fontSize=16;whiteSpace=wrap;rounded=0;" vertex="1" parent="1">
          <mxGeometry x="40" y="440" width="280" height="40" as="geometry" />
        </mxCell>
        <mxCell id="ionqRGrCN8myQI989uEd-71" value="Middlename (Optional)" style="html=1;shadow=0;dashed=0;shape=mxgraph.bootstrap.rect;strokeColor=none;fillColor=none;fontColor=#999999;align=left;spacingLeft=5;whiteSpace=wrap;rounded=0;" vertex="1" parent="1">
          <mxGeometry x="40" y="350" width="160" height="20" as="geometry" />
        </mxCell>
        <mxCell id="ionqRGrCN8myQI989uEd-72" value="" style="html=1;shadow=0;dashed=0;shape=mxgraph.bootstrap.rrect;rSize=5;strokeColor=#dddddd;;align=left;spacingLeft=10;fontSize=16;whiteSpace=wrap;rounded=0;" vertex="1" parent="1">
          <mxGeometry x="40" y="370" width="280" height="40" as="geometry" />
        </mxCell>
        <mxCell id="ionqRGrCN8myQI989uEd-73" value="Date of birth (Optional)&lt;font color=&quot;#cc0000&quot;&gt;&lt;br&gt;&lt;/font&gt;" style="html=1;shadow=0;dashed=0;shape=mxgraph.bootstrap.rect;strokeColor=none;fillColor=none;fontColor=#999999;align=left;spacingLeft=5;whiteSpace=wrap;rounded=0;" vertex="1" parent="1">
          <mxGeometry x="560" y="260" width="150" height="20" as="geometry" />
        </mxCell>
        <mxCell id="ionqRGrCN8myQI989uEd-74" value="Sex (Optional)&lt;font color=&quot;#cc0000&quot;&gt;&lt;br&gt;&lt;/font&gt;" style="html=1;shadow=0;dashed=0;shape=mxgraph.bootstrap.rect;strokeColor=none;fillColor=none;fontColor=#999999;align=left;spacingLeft=5;whiteSpace=wrap;rounded=0;" vertex="1" parent="1">
          <mxGeometry x="360" y="270" width="90" height="20" as="geometry" />
        </mxCell>
        <mxCell id="ionqRGrCN8myQI989uEd-75" value="Male" style="shape=ellipse;fillColor=#eeeeee;strokeColor=#999999;gradientColor=#cccccc;html=1;align=left;spacingLeft=4;fontSize=17;fontColor=#666666;labelPosition=right;shadow=0;" vertex="1" parent="1">
          <mxGeometry x="370" y="300" width="20" height="20" as="geometry" />
        </mxCell>
        <mxCell id="ionqRGrCN8myQI989uEd-76" value="Female" style="shape=ellipse;fillColor=#eeeeee;strokeColor=#999999;gradientColor=#cccccc;html=1;align=left;spacingLeft=4;fontSize=17;fontColor=#666666;labelPosition=right;shadow=0;" vertex="1" parent="1">
          <mxGeometry x="440" y="300" width="20" height="20" as="geometry" />
        </mxCell>
        <mxCell id="ionqRGrCN8myQI989uEd-77" value="Telephone# (Optional)" style="html=1;shadow=0;dashed=0;shape=mxgraph.bootstrap.rect;strokeColor=none;fillColor=none;fontColor=#999999;align=left;spacingLeft=5;whiteSpace=wrap;rounded=0;" vertex="1" parent="1">
          <mxGeometry x="360" y="350" width="160" height="20" as="geometry" />
        </mxCell>
        <mxCell id="ionqRGrCN8myQI989uEd-78" value="123-456-7890" style="html=1;shadow=0;dashed=0;shape=mxgraph.bootstrap.rrect;rSize=5;strokeColor=#dddddd;;align=left;spacingLeft=10;fontSize=16;whiteSpace=wrap;rounded=0;" vertex="1" parent="1">
          <mxGeometry x="360" y="370" width="160" height="40" as="geometry" />
        </mxCell>
        <mxCell id="ionqRGrCN8myQI989uEd-79" value="&lt;strong&gt;Facility Maintenance Alert: &lt;/strong&gt;Facilities team will be performing maintenance work on the elevators from 7 PM to 9 PM" style="text;html=1;align=center;verticalAlign=middle;whiteSpace=wrap;rounded=0;fillColor=#FFF2CC;strokeColor=none;fontColor=#333333;" vertex="1" parent="1">
          <mxGeometry x="40" y="110" width="1150" height="20" as="geometry" />
        </mxCell>
        <mxCell id="ionqRGrCN8myQI989uEd-80" value="" style="html=1;shadow=0;dashed=0;shape=mxgraph.bootstrap.rrect;rSize=5;strokeColor=#dddddd;;align=left;spacingLeft=10;fontSize=16;whiteSpace=wrap;rounded=0;" vertex="1" parent="1">
          <mxGeometry x="40" y="580" width="280" height="40" as="geometry" />
        </mxCell>
        <mxCell id="ionqRGrCN8myQI989uEd-81" value="Street Name (Optional)" style="html=1;shadow=0;dashed=0;shape=mxgraph.bootstrap.rect;strokeColor=none;fillColor=none;fontColor=#999999;align=left;spacingLeft=5;whiteSpace=wrap;rounded=0;" vertex="1" parent="1">
          <mxGeometry x="40" y="560" width="280" height="20" as="geometry" />
        </mxCell>
        <mxCell id="ionqRGrCN8myQI989uEd-82" value="City/Town (Optional)&lt;font color=&quot;#cc0000&quot;&gt;&lt;br&gt;&lt;/font&gt;" style="html=1;shadow=0;dashed=0;shape=mxgraph.bootstrap.rect;strokeColor=none;fillColor=none;fontColor=#999999;align=left;spacingLeft=5;whiteSpace=wrap;rounded=0;" vertex="1" parent="1">
          <mxGeometry x="40" y="640" width="200" height="20" as="geometry" />
        </mxCell>
        <mxCell id="ionqRGrCN8myQI989uEd-83" value="Stoney Creek" style="html=1;shadow=0;dashed=0;shape=mxgraph.bootstrap.rrect;rSize=5;strokeColor=#505050;strokeWidth=1;fillColor=#ffffff;fontColor=#777777;whiteSpace=wrap;align=left;verticalAlign=middle;fontStyle=0;fontSize=14;spacingRight=0;spacing=17;" vertex="1" parent="1">
          <mxGeometry x="40" y="660" width="280" height="40" as="geometry" />
        </mxCell>
        <mxCell id="ionqRGrCN8myQI989uEd-84" value="" style="shape=triangle;direction=south;fillColor=#495057;strokeColor=none;perimeter=none;" vertex="1" parent="ionqRGrCN8myQI989uEd-83">
          <mxGeometry width="10" height="10" relative="1" as="geometry">
            <mxPoint x="260" y="15" as="offset" />
          </mxGeometry>
        </mxCell>
        <mxCell id="ionqRGrCN8myQI989uEd-85" value="" style="html=1;shadow=0;dashed=0;shape=mxgraph.bootstrap.rrect;rSize=5;strokeColor=#dddddd;;align=left;spacingLeft=10;fontSize=16;whiteSpace=wrap;rounded=0;" vertex="1" parent="1">
          <mxGeometry x="360" y="580" width="160" height="40" as="geometry" />
        </mxCell>
        <mxCell id="ionqRGrCN8myQI989uEd-86" value="Postal Code (Optional)&lt;font color=&quot;#cc0000&quot;&gt;&lt;br&gt;&lt;/font&gt;" style="html=1;shadow=0;dashed=0;shape=mxgraph.bootstrap.rect;strokeColor=none;fillColor=none;fontColor=#999999;align=left;spacingLeft=5;whiteSpace=wrap;rounded=0;" vertex="1" parent="1">
          <mxGeometry x="360" y="560" width="160" height="20" as="geometry" />
        </mxCell>
        <mxCell id="ionqRGrCN8myQI989uEd-87" value="&lt;font style=&quot;font-size: 14px;&quot; color=&quot;#006600&quot; face=&quot;Verdana&quot;&gt;&lt;b&gt;2. Select Record&lt;br&gt;&lt;/b&gt;&lt;/font&gt;" style="text;html=1;align=left;verticalAlign=middle;whiteSpace=wrap;rounded=0;" vertex="1" parent="1">
          <mxGeometry x="40" y="820" width="800" height="40" as="geometry" />
        </mxCell>
        <mxCell id="ionqRGrCN8myQI989uEd-88" value="Blong to household (Optional)&lt;font color=&quot;#cc0000&quot;&gt;&lt;br&gt;&lt;/font&gt;" style="html=1;shadow=0;dashed=0;shape=mxgraph.bootstrap.rect;strokeColor=none;fillColor=none;fontColor=#999999;align=left;spacingLeft=5;whiteSpace=wrap;rounded=0;" vertex="1" parent="1">
          <mxGeometry x="360" y="420" width="180" height="20" as="geometry" />
        </mxCell>
        <mxCell id="ionqRGrCN8myQI989uEd-89" value="True" style="shape=ellipse;fillColor=#eeeeee;strokeColor=#999999;gradientColor=#cccccc;html=1;align=left;spacingLeft=4;fontSize=17;fontColor=#666666;labelPosition=right;shadow=0;" vertex="1" parent="1">
          <mxGeometry x="370" y="450" width="20" height="20" as="geometry" />
        </mxCell>
        <mxCell id="ionqRGrCN8myQI989uEd-90" value="False" style="shape=ellipse;fillColor=#eeeeee;strokeColor=#999999;gradientColor=#cccccc;html=1;align=left;spacingLeft=4;fontSize=17;fontColor=#666666;labelPosition=right;shadow=0;" vertex="1" parent="1">
          <mxGeometry x="440" y="450" width="20" height="20" as="geometry" />
        </mxCell>
        <mxCell id="ionqRGrCN8myQI989uEd-91" value="Sumbit" style="html=1;shadow=0;dashed=0;shape=mxgraph.bootstrap.rrect;align=center;rSize=5;strokeColor=none;fillColor=#3D8BCD;fontColor=#ffffff;fontSize=16;whiteSpace=wrap;rounded=0;" vertex="1" parent="1">
          <mxGeometry x="40" y="740" width="150" height="40" as="geometry" />
        </mxCell>
        <mxCell id="ionqRGrCN8myQI989uEd-92" value="Cancel" style="html=1;shadow=0;dashed=0;shape=mxgraph.bootstrap.rrect;align=center;rSize=5;strokeColor=#dddddd;fontSize=16;whiteSpace=wrap;rounded=0;" vertex="1" parent="1">
          <mxGeometry x="210" y="740" width="110" height="40" as="geometry" />
        </mxCell>
        <mxCell id="ionqRGrCN8myQI989uEd-93" value="Clear" style="html=1;shadow=0;dashed=0;shape=mxgraph.bootstrap.rrect;align=center;rSize=5;strokeColor=none;fillColor=#DB524C;fontColor=#ffffff;fontSize=16;whiteSpace=wrap;rounded=0;" vertex="1" parent="1">
          <mxGeometry x="360" y="740" width="160" height="40" as="geometry" />
        </mxCell>
        <mxCell id="ionqRGrCN8myQI989uEd-94" value="&lt;font style=&quot;font-size: 14px;&quot; color=&quot;#404040&quot;&gt;Sort by:&lt;/font&gt;" style="html=1;shadow=0;dashed=0;shape=mxgraph.bootstrap.rect;strokeColor=none;fillColor=none;fontColor=#999999;align=left;spacingLeft=5;whiteSpace=wrap;rounded=0;" vertex="1" parent="1">
          <mxGeometry x="40" y="860" width="200" height="20" as="geometry" />
        </mxCell>
        <mxCell id="ionqRGrCN8myQI989uEd-95" value="Date of Birth (Low to high):" style="html=1;shadow=0;dashed=0;shape=mxgraph.bootstrap.rrect;rSize=5;strokeColor=#505050;strokeWidth=1;fillColor=#ffffff;fontColor=#777777;whiteSpace=wrap;align=left;verticalAlign=middle;fontStyle=0;fontSize=14;spacingRight=0;spacing=17;" vertex="1" parent="1">
          <mxGeometry x="40" y="880" width="280" height="40" as="geometry" />
        </mxCell>
        <mxCell id="ionqRGrCN8myQI989uEd-96" value="" style="shape=triangle;direction=south;fillColor=#495057;strokeColor=none;perimeter=none;" vertex="1" parent="ionqRGrCN8myQI989uEd-95">
          <mxGeometry x="1" y="0.5" width="10" height="5" relative="1" as="geometry">
            <mxPoint x="-17" y="-2.5" as="offset" />
          </mxGeometry>
        </mxCell>
        <mxCell id="ionqRGrCN8myQI989uEd-97" value="" style="html=1;shadow=0;dashed=0;shape=mxgraph.bootstrap.rrect;rSize=5;strokeColor=#dddddd;rounded=0;fontSize=12;align=center;container=0;" vertex="1" parent="1">
          <mxGeometry x="460" y="960" width="350" height="430" as="geometry" />
        </mxCell>
        <mxCell id="ionqRGrCN8myQI989uEd-98" value="" style="shape=rect;fontSize=24;fillColor=#f0f0f0;strokeColor=none;fontColor=#999999;whiteSpace=wrap;" vertex="1" parent="1">
          <mxGeometry x="471.14" y="970" width="328.86" height="200" as="geometry" />
        </mxCell>
        <mxCell id="ionqRGrCN8myQI989uEd-99" value="&lt;b&gt;DoB:&lt;/b&gt; 1988-11-20&lt;br&gt;&lt;b&gt;First Visit:&lt;/b&gt; 2010-12-05&lt;br&gt;&lt;b&gt;Procedure ID:&lt;/b&gt; F3-01-55 (&lt;span lang=&quot;en&quot; class=&quot;HwtZe&quot;&gt;&lt;span class=&quot;jCAhz ChMk0b&quot;&gt;&lt;span class=&quot;ryNqvb&quot;&gt;Otorhinolaryngology&lt;/span&gt;&lt;/span&gt;&lt;/span&gt;)&lt;br&gt;&lt;div&gt;&lt;b&gt;Insurance Provider:&lt;/b&gt; Häagen-Dazs&lt;/div&gt;&lt;div&gt;&lt;div&gt;&lt;font style=&quot;font-size: 14px;&quot;&gt;&lt;b&gt;Address:&lt;/b&gt; 3194 King St. W. Hamilton, ON&lt;br&gt;&lt;/font&gt;&lt;/div&gt;&lt;font style=&quot;font-size: 14px;&quot;&gt;&lt;b&gt;Telephone#:&lt;/b&gt; 987-654-3210&lt;/font&gt;&lt;/div&gt;" style="html=1;shadow=0;dashed=0;shape=mxgraph.bootstrap.anchor;strokeColor=#dddddd;whiteSpace=wrap;align=left;verticalAlign=top;fontSize=14;whiteSpace=wrap;" vertex="1" parent="1">
          <mxGeometry x="476.71" y="1210" width="318.72" height="110" as="geometry" />
        </mxCell>
        <mxCell id="ionqRGrCN8myQI989uEd-100" value="&lt;font size=&quot;1&quot; color=&quot;#3d8bcd&quot; face=&quot;Verdana&quot;&gt;&lt;b style=&quot;font-size: 20px;&quot;&gt;Sam Q. Armstrong&lt;/b&gt;&lt;/font&gt;" style="html=1;shadow=0;dashed=0;shape=mxgraph.bootstrap.anchor;fontSize=26;align=left;whiteSpace=wrap;" vertex="1" parent="1">
          <mxGeometry x="471.14" y="1170" width="328.86" height="40" as="geometry" />
        </mxCell>
        <mxCell id="ionqRGrCN8myQI989uEd-101" value="" style="shape=image;verticalLabelPosition=bottom;labelBackgroundColor=default;verticalAlign=top;aspect=fixed;imageAspect=0;image=data:image/png,iVBORw0KGgoAAAANSUhEUgAAAzQAAADICAYAAAA+yqSIAAAgAElEQVR4Xu2d6xU0uXGeJR37N60IOIyAVAQcRcBVBBxFwM8RaBSBlxFoGIGXEXg2ApERaBgB7d/2EY1n2UVisbgUutEzfXlxTp+5AYWqF4W6AOiev/0bFSEgBISAEBACQkAICAEhIASEwE4R+Nud8i22hYAQEAJCQAgIASEgBISAEBACf6OERkogBISAEBACQkAICAEhIASEwG4RUEKz26ET40JACAgBISAEhIAQEAJCQAgooZEOCAEhIASEgBAQAkJACAgBIbBbBJTQ7HboxLgQEAJCQAgIASEgBISAEBACSmikA0JACAgBISAEhIAQEAJCQAjsFgElNLsdOjEuBISAEBACQkAICAEhIASEgBIa6YAQEAJCQAgIASEgBISAEBACu0VACc1uh06MCwEhIASEgBAQAkJACAgBIaCERjogBISAEBACQkAICAEhIASEwG4RUEKz26ET40JACAgBISAEhIAQEAJCQAgooZEOCAEhIASEgBAQAkJACAgBIbBbBJTQ7HboxLgQEAJCQAgIASEgBISAEBACSmikA0JACAgBISAEhIAQEAJCQAjsFgElNLsdOjEuBISAEBACQkAICAEhIASEgBIa6YAQEAJCQAgIASEgBISAEBACu0VACc1uh06MCwEhIASEgBAQAkJACAgBIaCERjogBISAEBACQkAICAEhIASEwG4RUEKz26ET40JACAgBISAEhIAQEAJCQAgooZEOCAEhIASEgBAQAkJACAgBIbBbBJTQ7HboxLgQEAJCQAgIASEgBISAEBACSmikA0JACAgBISAEhIAQEAJCQAjsFgElNLsduu8x/t/CJ67L9GqfqfSjqOYfwvvX9JnX/z1dx0BBUggBISAEhIAQEAJCQAicDgElNPsachKVn4Xr51PywntLXnidW0hsSHB+F67fh+ubKPGZS1PthIAQEAJCQAgIASEgBITA6ggooVkd4kUdXKcE5hdT4kIC865CgvMI16/DRcKjIgSEgBAQAkJACAgBISAENoeAEpptDYntwPwysEUyc5nJniUgdqTMPsdH03pIs2Pz38NFkqMiBPaAQLpzaTuY8TFLHbncw0iKRyEgBISAEBACDQSU0GxDRUhe2IW5havn6JgdFXuGdtwfw5Ex+661q2IBH7s+9P2Vo+97qPOv24BMXJwYAbtf7BIw4PpxuOz4JZ975pDByNx5TXPI7jVjXqkIASEgBISAEBACG0dACc3nBsh2Y/7HFIx5OSHI4vp2Cr5aiYuXLvVIarg/50ulEYHfP09999BWXSEwFwGSlWu4fjrp6JyEZW7f7E6i87+Vzs+FUO0CApaE20ISoMTv+ZzuqGPnVYSAEBACQsCBgBIaB0iDq+DEbuH6VbguDto4OQuocHC8f0f5t4nPXF/w9I9v5OUd8qqP7SDAHLmGyxIYEpotFPT+ES6SG+aiihBIEbDEBf0dsXNIQo3esYCF7qkIASEgBIRABgElNO9VC5ycd0fmFepyQz5ObOQuTI/EBJL/M1yXTCMlNT1Iqq4Dgf8a9O3/cv/YLVylXRj0jrlhF8fD4pVtmyvpSjjBJd+h0+hzTqcdPP6lCgsLNj972qnusRAwnUKvOLrLa0l3R0j+CER+E67nCGKiIQSEgBA4CgJKaN4zkji4fwnXzeHscFSsAOO4PpXIpKiUdmteoeJP3gOhejkwApcgGzuW6fyw3UmSB1ao0beRO5RfBXr0TSB6nYmvEpuZwO28Gfpi9x6iQ55iyXguAec76MRXjSZ690/TnPD0rTpCQAgIgUMjoIRm/eGt7XLEvT/DB26453WL5X8FpnDiablPfG+RZ/G0bQRKiT5z4BNJPQmOPZyjFzkCTN1b1ovavurbLgx6wvtaQR/Q4/hhLb3J+GXqh11L+syVr8OXPIFSRQgIASFwagSU0Kw7/NdAniNbtSMIrMwRCH2zLitDqOeSGvj/+yHUReQsCOQSGfSI4GwrN99/Cbx473OLx+0ePuhJgMfSZOx46ymUtpv4XEmHLZlCv9JCn9zTqCIEhIAQOC0CSmjWG3oCIo6Z1ZKZvR0bQJY/ZiBTELeeHh2NMjrEEcZ4xZlkfqv/c8Q85r63nqLdmh60tlv3GlhrJTIkE+/eTcSvYHPjgs79w3ahFGdCQAgIgXURUEKzDr6eZIbVaFZyWdnbU8ndT4NT1wrhnkbxM7yyyhw/ZIIgjDmwh91Jkhrmtbcwr7nHgbmhsi8EroFddudKx7wYW3SWh0Kgw58o8MiOeVzQNdnhT4yG+hQCQuDjCCihGT8ErRVdnCFBHAnNHktulwaZdOxsj6P5Pp4JDkmGbcdyjwn9JfBvD/fwIsdx0oe3sup9FIFr6N2TyGC/Xx/l9M+dM6dYIIgLSfQeFgg2AJ9YEAJC4EgIKKEZO5qsQLNqVjtmdoQAJ3cvDQnN3nabxo6+qJUQSI/I7DGZiWXzzPO4Psfp9rqAcQatJpFBR3ktlWf4gXH81I5MiS8SmngnCRvM0bPXGQZOMgoBISAEDAElNON0gSSGQJ9gp1QIao7wRJrc8Rse3ywnOk6fjkIp3bE8yhxgnpf+oyk3dkdYyDiKTpoc2GwSmdpRQmwaR8u2mpBeAm//kQyMEuijaarkEQJCoImAEpomRO4K6UpZ2pBjABwHOELJHXVQQnOEkR0rQ+6Y2RES+jggbi1ixIhyf8NzLMSbp0bSwEVisKVyDcxwBPJSYMqOBj/C71vfeSahieUAa+yxihAQAkLgNAgooRkz1LkAP6aMQySY2dpxhbnSp/Iin+6hmYvmMdsRYP17uOz4JbrPHNh6cDhnNFqLGUbzbMeB4oR2Kwsetitzi3QzHXMWn7b61L2cfmrHfM6sVRshIAQOhYASmjHDWfrTSaN+D2+O9N8URz1GNEYbRIWgkSD/OkFBIH/0J355n4L2ClicYfUcHWDnwBLaLSQ06CPjVDoWjJ6SyDx2NoVzj3E+427gzoZN7AoBITASASU0y9HEObISXStbcObLJf0rhfTRzXKeI9HdP600uL8HkT6Z0BNUM08vU4D94/BK8PqHcL2iaynyuUea52h+Go+lcnrax0E2u3Of/I8Uz64MPHKf0x530dMFJsZH99F4tFR1hIAQOAwCSmiWD2UriPm0M18u4fcppCuvX0/Oc3Q/ordPBG6BbeaElU8dNbsGBn4eLo49XcJlOwU1VNFl/iTxuQB6FjdKOwAx2aMtcqSQxTh80kagB7VdGfhmvNlB3OtxyJwPugd5PrmIsGAKqakQEAJCoB8BJTT9mMUt0uA+R+2TznyZdPnW8crrK1Rh5XWvgcAa+JyZJvMhvUn+nU/3on/7HxFPUlEaK5Iwnmz1mDGYHpsA2W+mIHpGF7toEt+o/k4diMFh5wJ7VUtm79NY79mG5e7hQi4lNLuYKmJSCAiBEQgooVmGoue42ZEcyzXAhfMkQHiFi6NmvKoIARBIj76gG+9IeD1HimojZMFsGvg+QiOC8d7CPEn/xT1H46h/ggiOf4wERgfeeZTL9AF9LBXGfI/3y+TkSZ9yRp1PJZG9c0X1hYAQEAJDEFBCswzGW2geH6/JUTvKWeZ4tZPghGDstQw+tT4QAgSRHDO6RDLdw/u1V4mZgxwp8hwpgzUC2We4vp1e0eF4dR4614ke9ebquOchAcyjT95bsqb6kdDYmLzzHjv6xCZ/VREO3Pd6v0xOrD9lvjxqsrymzoq2EBACO0ZACc2ywUtXpHPU7uHLtYO6ZVKUW7MDRXD3y3DxnsAPWR7T+7X6Fd39IUAAye5dXNa8TwR95DhRLXCNeXmGD9wf807d9dxPsyZGn9SiWPZ3LeqgE60/OyWZIcGKk9hP4rS070sgkP6xJjSPqldL8VJ7ISAEDoqAEpplA9t6IADUvwnXnv5Q8xr4tZupCRCsEBASmLzz6Miy0VHrdyKQnuNfa/fBjhPdgnCeXRn0lvthmIfvLpfQYS7YjPl4hA9zjrW9W5be/uJH2b/DBmK37DhsiVd0Yc83/+fkyj2yea2516sDqi8EhIAQeBsCSmiWQe05VsJK4F7+dDJ1jvD+dbhY2VYis0xXjtyaxCL+zxFkRW9IgEcWEmwWEeJEu0R/K7uJrT/dhE+Onb1GArUBWqltXHPHgJ3y1s3/z1DnaMlMbt4x9Pdw7fVUwAZUVywIASGwRwSU0CwbtdwxmxzFvZxnvgbmOV5G4R4DVlaPcjRj2UirdQ0BEoz0v5hG6zy62VqBNx4JXtn1eG1g2HLYpGy960jWO+G4hM7i3SnGhKNeo0tuhyLtg76PlswgY0n2dz+EYfSYip4QEAJCoBsBJTTdkH2vAUGW52lGBFasUKoIgSMiwAo5K/JxGbki71mBt77ZGWJ1ekuJeOtemnccyfqE3qVHckcmuexOoHO3hmDP8PsRk5nS7sxRdekT+qs+hYAQ2BECSmiWDRZOJX48aY3aSGe+jGu1FgJjEUiPVb0C+VEJvGcFHmlIYNiV+cS9Mi00r6FCbeED3sFrS0lYSybP7+nuFPKxS7P0+Cp2t/UkM/g7ajKDbLn7N0fh6xlb1RECQkAIbAoBJTTLh8PzYAALuEY48+Uci4IQGItAfAM4lAlYlz6O2LsCb/1t/THiuf8KiUeBZOwxdlg2QS21j0uDbiUzf96ZYtcyLUc8urgJJRYTQkAIbB8BJTTLx6hnl+Y1BXpHW4ldjqIo7BmB9EjVMwiz5H4Jb9BqycweHsN7C8zW/rOKZOaITztjjNKEF/tHAoqe9BSvXkD3iMfMwCp3vJPvOWo5+iEcPWOjukJACAiBjyKghGYM/K0nGcW9jFi9HsO1qAiBMQikuw9Lg3PvridzaQ/JDCi3Fj4I8vfyNMRerUF2khqOoMXlHj54n8blTWb2pBO9OCqZ6UVM9YWAEDgNAkpoxgz1JZBp/d9EmtSwGrv0LPkY7kVFCCxDIP5XeCgtWS32PAqdPvYYuKY7FSnqR7bHJCQs/FwToRnH1nHBsyczyM+9ZLljZkvm2rJZr9ZCQAgIgQ0hcGQH+m6YcdSeJ57FfOnM87tHSf2tgUB65OweOvGuvMf8lFagU56fUxC8t6ObrQccnOFxuyUMSoG5N5lBF474fz74FXYsL5mJq2RmDWsmmkJACOwSASU0Y4fNu7oc9/oIH456dn4suqK2VQTSnYc5gdYtCMf8IYCtlb0mM8hEUFrbyT3LAkcpSH8FfEiEsYmUnmRmzj05W51PJntpV4bkDV0xnLYsh3jbHgLMP45//jhcfwgX9lpFCOweASU044ewdawk16Mc1PhxEMX3IZAm8gRaPUk6zpV500pm9njMLB2F9Hhe/Ps9fJizs/W+kR7bU2lHjnH+dbh+Ea6vGl1iO7f6uO45aDEHfhWuW7guGQLMLZKZve1OzsFCbcYhgF5hZ7HVvFLQIT15dRzGovRhBJTQrDMAc3Zq4MQcOU5LRQjsBYH0GNE3gXFWzD3lEipxZK2VzBzF+dYeeMC870kEPfjuoc5ce4lsR3ncNfPAEpncXMA3kOwyt1SEQA8C6BZzLF0cuE861UNLdYXAZhFQQrPe0JRWHz09PkMlVijlvDxoqc6nEcBRcsO3FfTX89hmArfcjeI5eY7yx7S3IFzp8c09ieCnx3x0/6waW0Dvpc1RmT0/qhj9v4bLdqJyiQxz6bfheoRLuzJezVA9QwD9wsamunWE3W6NshD4HgJKaNZVCJy05yhNiQucmRKbdcdI1JcjgLPkKJUVAi/PI4j/urPzd6HFfxYZ2XvgGgtGgFF6eMiZExrD6Bbe1P6vx+oRkO3xSZHMFWT8Zbgu4colMcwf5CNZ41VFCMxBoBZ/sOD0nENUbYTAVhFQQrP+yOCw2O7Fic0tGB4lNnPRU7t3IJD+Fw0JTW1F+Rp+z60cprw+whdHOoZ1CfKUHgzAPPfsbL1jPD/RB7Yy9381NV7QMXD7dnrdUgKAPASVXD+N3pfkQRaSd3ZktiTHJ3RBfS5DADtTOsqrhZNl2Kr1RhFQQvO+gcGpEcBhaOYWnByJzWMuAbUTAishkN4HUXsEsTdwPeKxiHQ3Kx4O5AW3s5aePyiuYUTARnLwCheJDq9caxTGk+syXTw5ivfYe15zOzAxH8/wgUtJzBqjc16apYcTMS/0IIDz6sWhJVdC8/7h/RK65Kw4zm5ueYWG8eNN59JROyEwCoE0UK89gthzE/iRHe+fCqCfOaHBLqIXrWI7WCQM3HtybTWIfkenuGz3AztK4Tsr/yeh96PpsyUml/DZkpj41csGfT0nHpTEeFFTvR4EanOJHcA933fWg4PqngwBJTSfG/ARiQ3cY6BIbmKn/Dmp1POZEYhXBUuO86sAUPwAgRJe90mvj4hn6dHNZ01o0Anum2ntZpR06hrakuBwrIuEg89bKJY8Ma4kL3EytQX+xMPxEGAOcaQ1N5fQvyP++ezxRlESzUJACc0s2IY2GpnYcBztNZQ7ERMCfgTiZOWb0Cx9dHPN2ca9EACyEn/UJJ2z7QTgaXlOcvsR33/NSxDB89hu7BrBmFcnoBsnOXy2axRqxgu82fWH8J5x5De++1S5ho7ZwYIfEkGVcyCQPkI/lvoePrD4Oacwl9Anym8+rNtz+FebEyBw1IQGY/7zcPHK5HvsYCzhlSff3BbySiDJlvJrIR01FwJzELD7IJ6hcXqDe83ZWl8Egkf71/cUx9L59lwSOGcM9tKGBNfz2O41dOIS+uaKV7Ltfbq6bYkLr3ZhX73JVTwe0ObIMck/NOyRzCPHLD3SyQIBc0o+YSTK26OFPpcWB9DVn8zUWXQ13UE9ymP0tzeK4mg2AkdLaHAWBE23yVFhwJl4GPS9FIwSBsRznrwmkxKbvYz48fj8MjnORyRazdnGCLCafPQz3qU/1wSvIz3RraXZtT8ZPaJOsMqNf8K+x4VAE181okA7d6QT+vSjclwE1tidIaYqHWEbqbfHHRVJ9jYEjpLQMOluk7Ow1bUjrEoRGC59gIASm7dNJ3VUQcDzIACCrp5jRXsFvPQ0rzMkczZmpcA7HdOj6AR+qfRI6toDNHp1vDbPSJYfvQRVfxcIXAKXa+3OlO55RJfOtACzC0U4M5NHSGhY9WKlj1crz/CGnZk5RwK2qA/XwNTS42gES7rHZouje3yeas42lp4jaszdo5fSkbOzBJy14D4d+yPoBPLio9KdGZOVRaf0frO5cyD9P6iYzj18mHsPxVx+1O49CKyxOwPnNbrEV54/UH4PAurl9AjsPaEh0E//nA/nQGBwlGQmVlKSNnZsbgs090yrwAtgUtOBCHiOFo0M6gayvgqpUtB5lnPpnnupAP4otqol7yg5SZx4gl6pnGmOrTJxN0q0diyMOGjuvTOI2/pvqL3HkBsdUrE1B4E9KyPHsXAUdsTMHOBZHmGM/HPvs+E4HsccnnOURm2EQAcC11CXHYlawemyEo9enqGUEpoznElnUQZ9iO12bsxf4csjHD9E/9NFt1TeUYlsa65h79MHdZxhvm1FRnR+jYXWtXZnwK2248fv7NCsIdNWxkx87AiBvSY0uQk8apVrR8P3HaskNnPvszkrZnsb4z3zWzpeFcv0CB/OdBb7T4UBPUNw4NEH4BkV5H967njkHZXItha5ZO/fqw0k7/bnr7y3JJ6FG5LLEQ8/gSb3zlwyoi3dnYFnaJfKK/ygB028V6fUWwWBPSY0OaPNVvpRj5l5FfgWKpLo5QxbjQbGFezOsjruxVP1liPQcoj0cLbdGeYnq55pYf6xI3Hk0gq4TXbs+ah7Sj6Jp0feZ2Bw1K5J63jQWe7R+uSYW9+MfXqCJOXrMfneFr/YUexGrvBnsvfCb+gW9816CnXTnZZb+I7jwqUyUnc9PKqOEKgisLeEhgnGMav4uMIrfD7C0YRRqupxorm+jrIiOgpH0VmOQOveAXo426pxKck7ShBf0hpsdunxr3GboyS4HnlHy1o7HjS6r+XW4ZgUGPf0ARDYuN9MCcNX4fXn4cIOkBC0dqY9idEIJHMP32jd+3gPHeshEyPQF40hCOwpocEApGevMdJH/xO+uQPteUxuSnvk40Pn8q12x0AAx146CmESMn9ZjHgdQ2SXFNfJjqWVj7563gqODI+jBEke+ztS1tZu6NkWDlyTcXAlbB4xCmNhZQnul8mGxgu4g1n+jlxpd7iWIGOztZC8xmiI5mwE9pLQlCa2AvD60BM8tW5I3XJghSFn7LkoBMAYUi6VbSPASmTp/wuM8yXOftvSl7kr7aASHBBYHLG0gm2TmXl9hCDpOul+LRB9hjoj/1qgpFdmN5c86eqIOrmGTOmRv6X2DRvKLnepxIlTXMf8pEdG6rKYwtyLS2vOHn0BxoPd0etY/NWjTx/FZC8JTe7Gym8mh/BRAHfQOUqJocXJesunjBW8wic3UmJQSwYbORh/AkBteXtH9b31Wuf5z7g7wwjkcAGLI/+fg3d35igLVK0HARA8jk7cSvPNAlbspcp6COQSylEPe8hxja8sHeEcERvVEuSlidroUQCLOF5gfhEb8KriQyCNvSyZSVtb3MURys3hu4eEJjexMNKc+URpVXwItJxsSuWdK8YYo1+G6xYuJlJv2ZqB7eX/aPUvQaDcje+xnCOc7h5xyx3jeE72bI/ytHhurfRaezAYuWPR4mut32uBIH2ukWCUgts1+loLtz3T/Sown+5Gr23favcn5u6H6cW3lCBvxddeg0BggH0pxQzYFALvR6/wJ6oPjiwg3yo4luAAVxaUX1vBa+sJzSUAxTn8VGHvE5BbwXEvfLRWzWM5UNK1H8nIuGKUvJMJBw1fvKIbXFZIbgmIRk0ueONx2NepH+uXfv4w9fPsGHjowfea5R19ePj3PAzgjA+hKAX39wDqUXcavbszI4Iwj26uWQd7lPNXcZ9r7ELlAmpsDX091hS4QBt+bJcdm4TNNNv9+/CeYL+nvMOuze2Ddul9M8i2tn0r3d+CT2IuLSmlBJlkBju1th+r8X4NP+KX0TFvYQ60Hr7gpVWqB1/2iO6czjMHXgs6maufpS7xRdhmXlvF5q7JcAkNkJdXCnox4hHkLT6av289ocntKgCuzgM3h7ZYoSepWcP5GmNMCCaUTYoSw4z3I1ystDCh4kJbS4j4nrojdu5ugU76NL2432f44FlNtqQI4wuvfB45+aGHQTJDalh++kb72s2k4PgK19rJckmfPvn9l0mvUh7WPJrySXnRx1aAD38EuEd4THPLtj6CnGsEVukCAnaQfnoTh6W6gj1Kn/AV04Qvb5J1DXXjFfhRtt34MdtMP9hQPt/D1buwUFq8WXNO409K9yeOSKRS+mAPLviuTxXGp2fxM+XzGb5YmujlZIcvYoVbAZi52JlvR2beX8IFraVHVXtwNN4fU9+piLHuE5thc9IY7a36suWEpuT85xidt4K68c5Q6NbTp0wEFHqNs/2MrU3UGlxMJBwgfNRK/EQhJhSTfm7BmOOUwSlXnuHLVjLTMhrQWGJczRnDK844Lvfwodcpz8Uq1w5+0K9a+TSPI+XtoZULeJfqa0//767r2Z0ZHai+W0brr+Sv7PdXeLM0GCnJli4gPEJFdkLANrad2A2zaz+e3tt38esz/NabYNK+dq8mfHiSrGuohz1P7ZrJvvQoNPRt5z228fDXu1AKjyy6QgfMoG0Fv9nyW6XxbH1fSpxfoeEIHYv9KbwgGxcnE1KZLhOz6BOFz6lOGbYtuUq/QxNbEuObq4stNT5/FN6n/nFEshf3i5y1BJ66vX2iU6Xj9720Uoyg7dmVYbyIIR6Z8U5pxjaedh9dTN1qQoOi5ILu1wTYWoZi7oTbWzsMA4bYU3BCKPaI4jEA9ON1fjFP5tTRkbmr/5dJ72JHF/fh0T+MBg4HWrUyZwUPvmqrVB7+RoxjjcYt/IiRGy372ny/g35u5+oeOv5kArqW3K25ZP0eQf6/yIpD/VMeURYwniuAjb1pLSD0dvtNaNCb0KRBcNpna5zNtn1pMNuiU2p+DT/UEqU5pxHsBAl4EUzDGwX/tcZCILRr82ouNilmrR32Xn2i/txYk3FrneRgXmFDeU1LHHAzRksWO1PaLZ3/OjTwHsViXEm0b+HKxR9z5mTML3Rrp06sLhgx918dgxzryyO0W2MX2sXOXCVzEV9QqbSNe58UdwFpNZ0QaB2PMKBGGWdvoI9Rau2A5AaR1RgMwm/CxaSaU8xB5dp6kiycsWfnCfq9Cc01tKk5ZGiOTD7n4Eebll4tNcxz+fp0u1Lg2asHn5bD2793d6Z3Vdzb/zvr1ewGfPQENr18l3xlL524fi+/2N7SESjoYo9rQQ5zA9uGjWuVXvvRWgSiv1e4enc2TGb8Askqq+pxMrZWbFUab/gYsTq+RoIMvnMWGVv+FJk9Ownx/Bxlb1s6j56i8/BYKx79pP2SBZHbNL9yiVLMG/MePFs8p/JA3xYx5451a967fl9r0rk6L1QCdDK+HPijlHEJf0dpC75/dAqzNFC+hH4wKrzWytwJ5RSjWq1loO7TZM8RAcvaOdq0DQbDu4J3nWjjaGrlGX7E6H26tFb3lm6bf1q+uf3jnNGRuGxlzObKVGpXs+Fxmzmr4qN5XUovN64xTeb6mkmbzbdH6OfbcHH05zJd15nC9cxRxhrbXrJPr/BbLVmAR5KhVrBlonh58waK0J3j3yxIvof2BIFporHWkTN243JYE0D37qrl1MPkYNyQC30CSy7GCt3qLXN4a+kF8wr78XAwcwt1LOCm/tIdhKU6byzDl2fXZA5+PX1YYkj8NbeYHVrC69y+/9JuiwlNaQXio0AtRnqbBFori8b1PbzBuM0prclvNJlM3u3ZOXzU2sBj7b6iZ/i9tGtEW4wlCZG3eGTtccj0u2QFx8t3q94lVMCwlcrawV2Lv0/+nptrcwKpT8rg7bsV5EPnFa7eVXFv/++qR2DJuNaC8TXHmP7tuFlpse8a6lAvTRrK4dUAACAASURBVKZHzdHWDlEtAUFPvDva8Iv98OxCIDM2GXvUKs9QoXchCFtPEhbrcKrzS+/1yfEdj3f6uzfRa+FhgWlJby2xQZ88+NJfL2+teYUewB8xoafAsy2S09a7mFiivUTnoYl80PDEDPCLfv7OI2hS5xY+txKmXixrbCDPM1zQ/EjZWkITK14KSO+k+AigO+sUhbeVixrrGI45qz/eYP8e6M9JmMy4XqIJ/5omVM+kqhko6CA7EzUtGCbP/TJpu5qz601koD13fEarqzn6Et2t8Dla7ha9a6hA4BsX9GrNlfsWT2v+7lkoWTPQX1M2o808rS2CvGNemt3yzCuvLfbQMgwuEwbQzpWvw5elRapWUJij1+INe4w/49Vb5iwE2S5JvMOY2r57YGCOT6vxXcLsFRqNWBwAN2Tz2qYvoW4rUfbSinWqdZpjTixoYwY/SxKaJTrPPOFYPLiV5kw6/rU5VNMVxrK12AIWPYmhd059rN7WEppSQNQ7KT4G6M46ZlJ5jp3NMQJeBzpnwrZo90zUloEqOSaPweh1ytD0rtzEtOc45TVUlWDiViG8hpNfQ47RNHO4HBULC4pqGL7CjyMCsNHj1EOvda8YNmjuyqqXDwvSvAGex9732JLaTdGlMYaHnuO5XjtHkNiz2wPdVoKUGweLUVL58CPx7vQcn1kbd3CzXYa03ihbYgnTI3TgPZZlOzol3nt4Q0bm1bUCxJx4AXLxIsuS44A1H1eza62YJSfy3LiXvpAXW1wqPTFSTS/5jf6g9/GytYSmtLLXM8E+DurOGCidyY3FmGOca87OaM8xTpdpsvJaKj2rvzU+fxc6wMGnk/UavrNz3/xGPS6cXY0v+C0FH7fwm20PQ/M19UtftTLHKa+loi3n1hMsrcXju+mWApE1jqS8W7Zcf56V93toOHr1+p2yEzy3VqbXltESR+xET3JY2z17Blre41fYOXwH+p0rORucBnXwjv2CFrazVkq8pTTNHl8dCtE7B+NAMZWP39LFwdIxQAdrP6gCPvicXOmVo9S/2e8eO9063eA5Imj8tGwHOlA6+t3CNF6A6JEvpoue1nS+5NvRxTheQO8ptYSD3+/hmmMnW4st0PYuguRwRdfh/efhQi+Zc1670RqnRb9vKaExA50TqCdAXQTICRt7jocAS8+qRs34GsSP8IYt+97MvjVZe5KkS+i/ZqByho9gxlYCn5MMJDOUVqBDPQx8XDAOtmIJFvD/m3C9pkqtxHCucV5D1WsJDbIt2epfg9930Mw56S0loaMxaC2QoAd7Pmp3DfxbcFLC7h0yml7dAxM9QU9tjvb42dpKdU6/48QDfOD5ES6z/yQD1CmVXAAWj8UzNPx1uOibkkswYtpz5uAtEEBu+soFcCm2c/ooyV/yeyVeKlBmf7L4K+ejarRq/rhHfvqvHZFaOqdiPucG83N0nnlKXAD/6Ds6+poAbfnLOXayFYPQdU+MFI89cwocGat4rm7Gt28poall5yNXOnon+tHrtwJmk987Bih6aWvcaGE0czsfLaxbk7V3otZkzxlj6z/nkOG9xV9uVQ8j+VW4cEwkeGATlxrNHofRwnbE73+qENkaryPkbdFgLhDgX5KKW0pCWzL0/G5BUa3NPfzYE4D39L92XcaxtgBi/b9DRguGvHYZ3q7hImjMlVf40rvTU8MB24h+x3YMvSAQoh3fE1DSnxXmSbq7EfP4nGjG32EXiRkoaXLEdy2avbsa0LNjPKX5m/MnPeOTHZgJt5Le9SShJfp8PydBLtk368dr5yxQvlYYjO9XqslR+i1euJ2T0MBbae7kdB6ZzLej84xT6ttryeB90useWZlntaQQWo+Jlx66Np9M/3NtN5FLbIKJCZ1StrqZ7K9XA3ZSv7XNa2J4daWVIOUmvweqVqL0CkS8Dpn+LuEqOYkcjyYXv2GcCNDTUjNQz1A5XtWLnfzXk/GCdg9Nr8Pw4Lu0Dngyh0vlPsm4tJ89tSdRTY+JHDmxa9kS9HvOquMWxjwOUGr8vEPGa2CA4KJXl2q78T3zs7ZSndKJg6ySncvNkxjj1M6ZLS4FirQ1jHJj1YsbNEig6PcZrtzuDHVu4QKbuMzpK+W5NK9G6potQvbMT8NkKcY1OtAG856jZsxV9M7a8hrHl3OSzJ654/Ht8Jhb7ILXOeMKvVrCAV3my5yFZNq25ugcTHN6s+g7b5C6qBNHYwajtEKDMpcMiIO0qjQQaBkTmr/ChcK2SkvpaT93RamVKPWuunidMrppR8IwCOnqomFyCW9qAX3slM3gQZvVRRx9rlzDl6VVoRGOsjWePb8jEwa6VHrHp6fvrdbNOcEtJaGjcasdoaCvxzT/R/f7Dno1exH3f5/m9Jo8mS3smVM1W9ITQNXm+SsIHS8qWTIDFqywM/65UsM2tXNWtxWc1QLQObszFnzW5m8pjuntL8WodIxzlA8wv90zP2sBOfx77dwl1G3tenpp0S86x/xA3ynoNvMk9qO9wXdt7uR03nYj76Ff/Huu3MKXafJr9WrtCuR+8D9IaT1wAEfmzZxSm0/Q6xmjOf272mwloakFwgR7GEOVdRDwOGqP4cTA2SpPidO5Y1kzKPT1CBeJkrd4nXKczDwD8doqUW11OsYvTmZqTh5ZakZkEwYkArw1Rj33YHnHccv1cjbNM4+2LFONt1IwF7fZms56sf4SKhIktUpPYtCiVfrd7Cx9eXekaUOQxRzNlXv4shR4pfVru9DxsSD6st3J0o42tFt+I9YZS+SeoV3NFtds0Zw5aLbd05aFWWSKi6ddabxrvqonoa3pm41pz/z0+ruWnrd2dXuwa+k5vDBveu/lrPnheIGWsbLEqebb4bO0mzLHhrTmEHIvObJX00Eb37kL1S396Pp9KwlNTalHTdouYE5UueagDAZPItIyTL8LxOZud9YMyhwDUEvibOLHycxjMgj0lSstg2KOIk5mak6ePnIBsfXdY+Tfpcq30FFpxekVfvPs8L2L17X7KTmsnoBhbR5H06/pK30x/wnA91a8yQxy3cPlTQzm4mDzrKevmgw99vMamC7tGDPHLcGinieZAQNvYGz1HqENNrpki6E5enfGFuo887fU99xdmtLYzQnMczpnvsvGz6OXl1CptqviwYl+6Lt07Mr48NKifssGUafXd9ZoxjFNnMy0fHtN53vmtWHUOr3SK3OqA63YjvpLEiaPzrnqbCWhqQXVPQrtElqVvodAayuRyq2kshXQQ2PuOLaMVO9Eqq02xEad4Jy+n5P8NQfqcco9yQx41lZU52K5purXgqa9BrNz8crpw9eT0Z9Lc+vtWk5vjqP+tMwWpDAfWwX7QNCKDVmzmL32Hptp2eaecan5aVuhvU62CwxagV2NN/C0IzI9yUzNDs0J7Hp2Z5C5FFzOtYElzEfZE5NvlB70YHwLeJUWwcCyhxb1a2Nvc7JHTtp4dmdM59Hn1k7FJdQpJYPoPPO6FmuktiXuO2d34nk0xy617IfR7I3D5vDSbLOVhIYVEAY6V7yGuymsKvwAAY+yvqZJVoOvFczMNb7wV9qahR948x67MP5ruzPmgC2Z+V1YQ/rHYF5qBgYeazf34ZQpdq62lRxSd7RTJjEDK5zqWqXG8zN0ajis1f9W6F4mfYiD4DmOaivyePlo7fTuzY6n48gY1hKb3uDLi2tcjwQLW9PTV231tkcvre8c3za/b+FHO5rXSmagU/Mb5jOsDrartcNfs8X017tLEvtH7yISttZ2p1KsPLY/boMOEhvlSi+tHA3zr/TjDaRr8tGHFyfqthZTe2hBr7VTQZ0e3Gqyms5fp/H2JDP0X7OT9/B77w5vC8OliUYrtjO9mtMPegfGzPUhZSsJTe7cqQm4N0c4ZGDeRKRlnGCjNclaTuQVaPQmHSZ+LUimTu8kYgKVVkfMQFnC43Gg8FDjkYmKgbKkzMNv7ERzatBr5I2eBS9rqVYNh0folADnDCXnsDzjvndsaja8JwDfAg4W6BHEW0EG7GWp9ARKc2U02+Tt6xo6Qh9Lidh9sk8efmoLQZZoYOe8gV3Nb2Cr8BngTZDqtcWenXKPrFand3eGdugMPiZXXuFL4hlvKcljtpzXJeUWGjOu+ClsVKvk5kXc5hk+eBeuWrEHY957RLWV0PTiVksWUp2/B35byUhNZtN5dMRbPBi2FgFqfcVzFP5KdgQaHvnTvsym9C40FHneSkLzpwqqW+HRq2R7qtfKvlFi2/YvydWi0dqCLdFtBfZM/N5EqWbwkBNnRB2vcWk5ZWiCD4bH6zRqePY4DMN1zpGCOTpcM65e2ef0u6U2OQzmjNmWZPLwUgviaO8NwD19rV2HOW07tNbXY7INyJkrc4KvXjkM456+aqvBPcHdJTBbWgj6JvxGMGy/e+d6zc7dA70/TOPg8UFg2fIXcxeCoN3ygfFYwgfJfal4F2hr8oA5c2ppYczQK29AeZvGpNRvzzxv7eiiA60EIeWjFeB7dRO613CR0OTKXJ2vJUiP0FHvol9rd6ZX51NZbY4yBxnbEh606x2vS2iD/r0m/Vuqy9+130KyUDMAAPn3QyQVkRwCbGejWKXimWQ1GksMbytRmjuB0Le0wOe34bJkBsPCd63ScspgewvXM1wYBPS5VlpOuTc5hJ4FGmuf7685k96xauG+xd/B2nbijD9zBIz/kcuXae6UZPQGcZ/GKJfMEAT9PlwkOaXyDv221UxvX9dJH0fwXFsIwq5hBwmMH+HyBGU1O2dzxnaWvEFyzRb3JIGGl9HrCYKtbW2B1jt+NXm8mNTmk9lrr4/O2beYPjbOuzuDrpR2sYzmHJvRSiZ7AvxawhXrPLrl2QVpJVvepNLwaWHoHdeSjsRz1OZAbRfeq9fp/OqNaao+YusJzStw37NFWxVWP34PgdYEw7G0VqZak6rHgMTMQdeOL+SGDd7Qi1aCELdtJR8EZUxi7wRrOWWMAJMcHr3JRI1H5kLvjtQttCEQekxyrTkFLoE4yW2ueDFdk7+1aefGjvHvXWVcm8816I8OJtfgsUUzl8wQFKC7BDfXCoE5wVeLn/h3s7M9ds8SoFw/PXSY17VjutD66m/+LhwL+09XYAc/NX3BVuGbGA9vMlHjkf567Y/Ro63Xdsc41xb5XqGiJ6Yp0egZu5qO2e6M10e34oWeJKumm/BMktB73MxkLeHWQ5O5XtqNeIbf/qzz/nt40eV0sSsemznJR2t+t2K3mm7wmy1ixPo2KqGx2Im5MHecs/xvIaGBsRJQgKkdmpbqzfu9tV3pcSY1xzRnkpokI3iLUaklH0wqfu9xoNCuyY7eQo/iNfQ1HqFzD1dvcNx7pGCeJv25FfyXjlr0BhRL+PhEWwLONAF/TmOPLhy91Jyrx458Gp9cMkMARFBwCVdtNXmJnfPK3bs7gz7WeO4Zk5KdQ69f4aIv3nsD/5qdgw4XmIMrdsMzf0YvBFkw95h48I6T1av5L09MQ7BMEp0rI/TN6D8nHffIZ74kVxc98C622Xwy/5ijdw9f9vo6o3MLb5gvaemhWRq/VOfx7WDYKiWerJ03qbT6LQyX6sg1dGQJXYxbLaHh2Cl2xVNsvg6PC7aS0NQMwFZ49AzUXurECpvj2Zx5y5nUxq13khofX8IbHEqt9NKuOTzrp8eBtpIPozkicIAW49C7I2VOa6lx69HpPxUq9xi7nv62UBddwNnjZKz0BHhbkGEpD63jGejglkuakMX2r2U7hjvlBCj0Kj42Cm+t0loB99pPj51D18HAO8YtPJHtFS5vgNzi8R5o9QTHc/BOx6OFP4u0Nd9aSx5G2FKj711sqyVYyN6DcQsb6C3d8Ux3aXr8pyf+gMeecajFSczn3l2K1hzqPb4W6y/zyXaT0nlYS2i8dtDmq/nIVozZsnXf+30ryULtjG5r8ncJrMrfITBiu/JngU5pFXBuEB07k9JQ9RoAD80egwdfLYNCnWe4PPfNmJypEY7l73EYtIuNkjd4GTE1Sgavx/iP4ONdNMCZuYTDj4s3UHgXn2v3U3PYS4OTNXln/PA9t6iTOJnh69q85Pe15TNb7bWpLXuHXcImeIrHzvXYplbyAU+9CVItAO2x69fQ98+nuYxve0048dpbWkF7TWdaycNSfTP6PX60tePk3Z0DY1v5L2Haw1eJBvM53qXx6ijtsAfoaa18HX7Ep3lKazy9iYD1dQlvSkdAqeO1EyXe4zmfxg6lBUtoeeVYbXcGJraS0NQM59IJ7FG6M9VpTTBv8FlzJHMDOlvpxRGVjIrXONmYtpwL9Xr49Trlnh2VWnIIf71zwObTUuPWOy9KK4u9Y9bb76fq5+xWj7P7FN+j+y0F/a9Jd0f3N4JeKZnBFsA3pTUv15bvEnjo3Z2pLQ4ikzfw8Ni552Q7sdeeMjpBos9asO2di4wzdFKfg1zeYD2Wv7ZjSb1a3NU62oUvWFIML6+fb8ULPT6mhQty3cPVs6OWwyLlubUozrijm7eMDqT0X5NOeHW+JnMvLXhpYbhkAfMS6Ju9yc2dWkLjiaGMvs0rL4Zufd9KQlObNF4D7Bb6xBWZuOnxmBiOHuNUck4oaU8wb/2bDjDJfxcuPudKT3DfMsbQ9zo948XjlD2TO5atRrNnTKBpRoP33jO+o6ZEKZh6hA6Yx0cqX4Iw6dHIXl06Ch6lhOYZBPTuBrwTC+xgurOGzYmTGfi5TfVKvPXOzV4ZbT719FPbUeqxza3EqDfY9yRIPXKarUPeUvEEd2Yv02TGaHoD/5iHWpL1ChVLSYnZFLDN8dOLT4qL+UPmpff0QCuA9vq6uO9rZcy89GpzKcWfuf3rcD2SRmD8s3Ch67y2CuPS41PRrZp+3sPvPclbK56p6VZLNn433KCTHvlsyeKZa7a4vFpMv5WEBsXiuEqu9A66Z+DOWqfmpHodVMnQzTG6jL8lWhgMAvycgemZsNCEx2tlsHMTt6YbHqfcG9TGsuf67jXwNi69fIyYEyWD+wzEtxjYzpX5FhqmRxMe4TuCH+bR2Upp5Q5MtpbIMt88yQxj2ArqV3PMoe/LZBPh13smHptZOgaMPF6bgM3EjpSCfGj1BvqthSDmTe9CWI0mQazn3oQWX3P8WS2pLPFlfoDXV7hy/u8evu8JgGM7BF0CVuh6gk9rO0eW1P7FfTNnmH+l0rNgmaPxZZq3/AaOlEtUke+4+M6+R/eYG/cKX/zknT9GJuYlR9o7r2nbihPm8BfzZLyCRS5pa9mW1rhdA1307xmu1WKBrSQ0AGvZWzrwqwLQUOAj/XybMM7JhBJjaDDe3lJaheoNwOnPAgczGKV7MXqcS8uY0G8vrzUMofcKV7qy0cLTJnppXHqcvCUUc/ho8en5HaObW5hAv9j2P0LBsKfHUwhSMNLIecZSmq+9AcDa2KGf6SJHbexaq9MtJ75EHrOvPTavFZx7A6jaDgMyPSd998rnCcbmJIe18bkH5lrBP3wRsPNaKj34Q6NkA43+I7zJJfk2dvx+Cdc1w1Cvv4pJGP2eOdkKYj0Yw4P5Yvpmp6S0a/EKv5V2rzy6Bm52ZIr6hhf9/yLCFDtNX3bB0y/DhTylQt1e317TT+yOJ+E2fmz84L2krz2Jaixn7NNKY2qxRQmfWi4R2925PHrGfzP30MDsLVylzH1Nx+ECaueVckGYicQE6U1maFtauWmdV02htHG3wOISKpRWGb1Oz+OoHpPcPUPbcvRe/uI+a3rfwyMy2wrcHD56cKjVLenFEeawkpn8yJfGvOQcR+laDx3sCvODVyutRLSUqNG+NyDp4dUCQGwzAQB9eUrNPnn5tb5L/fXyBJ1WMNSbNBhvtd0Dj725TjqRk9UCx1f4sSfIbsmamxPopPk8xptAONZT48+bkKbymN3ie2ggk6e0dMGDcSyb4Vg6jePV0RzvcdDM7yRP7CKmBX5S+T3xQm8y2aKZ04PSmMTjx1y5FSrO2aCI44ZnoFs6iljTBfCszRFLxubOc4+ufldnDgBu4p0VAbak6L3b251dH7o6uP773wUD+Z8/FHNuMgOl3DGTlmKnHMQT1Rz3NVTCMeeKx4DSrnVUBLl7DDs04bV2nGPuZK0Zih4j+jaj0Zgtt/B7bmHik0nWiAluusp8soK+o7e8nrkwL8AnLVsZ8+ukk5eIwWd4X3LeVKNuaSWZ32nP2I8ucSB0D8Rbuwxx/7UAvxTgxe2ROV7hzsnWyxM0aivV2GLsOq+9JeeDoOENjG+hbs5WwQu6gR/ifc/ucmtXL5eUWBuLc0YvClmi2zt2rSPqLVziJCOO4UoLBUvmVLw7CZ3a3E71rLWzOce3Xyf9Kel0T3Jq48cc/naaTyldr87H7Rgf9P+rSc9riyfUY77kSm3cwAH9pvTGXCXsit9vKaGByRJor/BbzypJNxAHbRArbCoihhoj85gpe84o1RQ77cZWBi7hh3iHiEmzZKeu1t54uIc3PYEC7WqJB1j2rKTGWNQMhTeBuwaCZjTm8jFTDX7QrLQwgZ4xznsshm+czCwZ8z1iUOO5tDOwhYUo5i0BSzx2BCjoYi2Ibi1grKXPFkS+An+9R1xqO0qtxZE4+CyN9RyeoFVLtObYYmheJro5Xj3JG+1KNt14Mjy9dvivySiR1Q/TrVxgTDCJ7X6GyxLk0jj2nn6IZZwzdrXkzKP/hi+yxQlGaQFkTuKQjmOvXWbM4Ad9ypVeekbjFt6U4pieJNkwpA16iF3KLfjG+lMQ5Qdfxwlry1bXdKE03yzGg+cWfS/P1XpbS2hKwRBCtAzyEEAORAQsUVgmVq4sXT3NGaVH6MgTtMKbrQykil5LHFr6ilFqrTC+Qp3eQAH8ahP6Hn7vTZBsTEp04dOTxMcyL+FjpOrnZOox4iN5WUqLgANdTZOZOAlf2kdve3jBSXD9KFys2j17iQysX1rJ/aQ+ghGJDPYkLt5gt5XQeOn0wHybdI02vfa55juh11oRbq1Sz+GJNjUcXxNf2Ibecg0NSjv53lihpLeWwJiP8wZjNd+FfClfjJntAsYLUaWA35tYGZZghC2mH+g/O0GeE8RaFxZ45/ouLYDAnyV1XlZTzHvnTTzncn3ew5dzfHtNF7xyxuNnOlia599M+uXFLZ7vHltWW5QozTfTn17evDL8oF4rQJxNeEFD7dIsAG9qGicMKTWcx5KdGaOXM3aeiRHzlqtfMgS/Cx3jlEulJnPcptfgWdvShIYvjPAcpwztJcYdmRkHDN9SPpZr3V8plIKYudiP5K2HFrqYru4zzp9MZhhrAjEwjssnx/+rSQ9TbN/myJKOL+EzfgSsrPTaPdqWAmZo3sM1J9Ap6R8822LMXNx+uCfw195qwXArEIfKM1y9wSbtarTnBNkmUUnn+N1Dt8QXemJHqW6THsXfecYvV+cVvowX0mJ/lepSKZFoJaVxv7E+efxyjudaQlOz5a2+PdiXcI6/T+1zr39hDJjjqS21PtIx8/BkdUx3cm084xFj+AhE4oXiXCzSMz/jGBvaxIO1+AWc2DUslZxtsYRpCYY9eH9Xd4sJDeAxYLym5R6+GOlEugHbQYNaYD8yGMutbrUcMbzZrhETMHfOtWQImBilHYuazPGQ9Uz6uN1l0snc8HucZ01tSquEj9CottsVy/xWo+GcA7lVxrn4O7scVg1sc6v74MyYIMcnCnMDfcnZRvj5FL4lh1ebs2vhdw2EbVXa+phj92oBM3R7g6eavOBnCxPwGq/W9+BUWtmHRsnXE8wR1JV0yvqfa+dKC5QtX9GSuxZktXYyavMonUMWPN4DQ7XYoxb8M6b4OmhbMbv/CF+kAWXJJ3h1LtYn+uy5nyTGvcQHdUqr8nHfyJbzYUvGzviLxxB85yzSrjnHa7RbO36XaU7y+rtwpQumuXEBA/S+lZhY/AWOOdrx+Nt7bAS2JVfozxYA7Pcv4Q391PSkQG7Z11tMaJDoOg1oTjrvdvIyZPbZGkNRWnFAecHuNUi0nJLnlDueFDg32tUmUskQlGgjczxJa+LNdcolA/wMnc1ZtYx5LB31eIRKpYQGfuzIXs5ZDhriRWRK49gKNhZ1OqBxjG1MjrGeGxgMYOtvLoGIreDX6H0K39yqYc0ejMAkpsG4MZdu4eK9lbl2rxXsjPRDsQ1YQrcWVOf0AlvsSWa+mXR/zpiVEpq5tjjmobQjVbvXBP2wRYGvw/vfT7bU6KY6e50w4vfS2EATOUslTUQs4Cv5wbjPmOYjfKgtclE3tl+v8HnO8WrrszYHckF53HcrWC4lS61gH97AxxYtGK85yQx0agsAz/D7Et9eihnotybjZdI3XpGN8WMc41KifQ+VSkk3mKGj0KW0xifur6YHqW0w3aY98wtZ31a2mtAAQEnhS4P8NtA22hEKm65MGqsoHYYQ7EaWXBCTTiom36/ChaLz/hmuWmBYMwSpEywFnzkZlzhl6OWc55Lgw3gsGYsSvwQhBEC0YzwZV+puseQcxtJxWFNOsGUOXZJOMMw4itHzp0eWUuKb0hgRKPbwZXVL9nrEHGnxcw0V6J/xi8uScUMHsG+l0nP8p8b/yACgpiP3SYeNl9uEGTa0VZboVE4vnqHDJcGi8ZvzP/yWGxvkjBPeR/hsOyOpnUp1NpYhDUZb8zIO6uDBFt9aAWVpgaC2exf7BugvXcCs+WLog7OV6yQbPHj6LtHGxpZktDFkzlCoOzeZKfldk2eJzhuNP4Y3ufl1D9/nEg8wtKSj5dtLCwWxftI34/GLcN0iXvDBPfGg166MtGWRavnfbjmhQYpSBv0Kv7HipPLnCZM7HmPYLHHqLXyZJLmVqWf4njFiMsVBhncilVYameQYAmgzSTFKyM/39MnnUllqoFIHkxr0Flal3+EfPb9kKsQre+D4y3CBucm85WQGcZApFxSOCgbnYp62szlk2NrvSxzmKN6MTm31Pe7rUzs0pbF+BebWstUl29cKBjxjUwq4rO1SewId9M12C7AneoCkGQAAFY1JREFU0IT3JaW26oz9ZTyu4TK7/AjvzY7m+qUNgfHckgscRyW5cQAV8/eceAZLC+rihDf1idSJTzbQLj1GEyc1jNWvw/XzaQxz2MQ6aDxYsOoZ65Js0AU/ZLRyCW9YNLxN8kJ/aTJjtEt88Dv9oB/XcKFPyOmRzWiXAmVkxM8j42ui/9PwCi/0YX3j/+hvTmG84TtXluq80fSMIfJcwoVvpz4FmbEFvNZKzSfQFtqGl9FJdd+DXWnhgLbYdsYrPiVDH2/dmTEhtp7QpIYmBv85DbpnQI5aByOCIl0zAsYGdU35SysFcZ9moFB0T0EuHLOnmJwYR9rlyggDdQuE4+TtHj7nVlk8PKd1GD8MbK4gHyU2TCMd1hx+e9rkjDoypQFDD82RdcE+t7oPxksc5kgeoVULVK0veI5XTUfz0KJX4jFOzFs0vL/fpnFLHfZzGreXl1ClXmmFlSaeozE1FtA721FnPtRW3ntEuYTKtZ0lo2U2mdfScalRfMUBETQtCOqRq1S3FpgyH8DDdIS+LaBL6aWxBnXT1X/GrGSnY3r0S1toEojfJj6oY/2bXS/JVYt9rA39UA8ZrTzDm9oJiDmYe2wPdOf0XdrZLfFpevsIFVoYlmh8FX5g7pXKiMUKo92bdPT6dk/8BS/QJV4hFuop6Bd2MFde4UtsuyXq1LlP/fT0Mazu1hMaBK1N7N7BHwbchwmBSbx9nrLzCF/Ydvo7WK0ZpefEC2PVU67JRMm1hTYT6mfhKhkoJh1B3lzjF/cbG4+RRo8+bpO8NYxGGPOeMRhVNxd0MHZg+KlSm0PwNjooWCqnZ4dm1Mr3XF4voWEumB4ZxGIXcgmozQ0CxlGlFsgtSWiQIU5mRu+0Mg7mH3JYoN/w/wpXvDOR1r2HL0Ys2mCf6Yc5R0C1ZMcn5dET+NPGZG75oVyACE7oF7jS35xC/7br4G1PX/BDAN4qXvladEq/fwk/MO9yZW6wbLRu4Q36Cr6lAv7M7d+E6zVXiKldLQmmj9G7C56kY4lvt/gnh98SusCF7pViK4up0NM17G/3MO8hoUGomtECyHQLthuIHTW4Bl7jjDhmHSxGO0cvNCg+q1HwR8HI/TZcTy+BQj0M6S8mHWDCQjelbatmyG+TjNffhwsHat8tZOW75sgJHxi+NYrtuGGkKK9IZo45jJRlDf5zNEvz9x4qjwiYeuW4hgaloJhx3SLO8FxbHV7DEffiSv2S80Zv5553R3+YD7kxo89nuLB7zJWRpbZQg12ZE5hjzwjeLAhY017HNhmb+YcJK95T+B1ewC22m7zHdlu9EZgyfteJJuM1uiALx67ox7BFLmQgCO7pk/a3cOF34DkuYANdLvM31L9El9XhlX6XYolsP59kox/6Mx54HeFnEzGzH20M8fPwALbfTq+mPx46pTpgjZwU5IRmqrNL6NOWPrCj8TjyPTiuES8Yv2Bn+sl7CvjRLxg+Jp6WyIeeMC42NtDmWlI8ydg3oQNbIFnS1+K2e0loEJRBqq1WLFkxWwzkGwhcpwmB0uYKE+KduzJvENndhTkwd4OdVDySXMiSWw1Gbwnq3lGYQ7WgmPkzMogbLdNtsoExXRzz3ERhNH/QK42z9eUdb+jg+AkqkZvPaXlOsq81ZvRZOm4B7uz8vpwgQgvdQxYK7ddMZjxsHcm+pPKOlu0yjdmIwN0zNqqzDgLXaRzXshlerkfrp7ff3nrxcdF3299eXjf5PzQtIb5MjiFXbzOZYksI5+/m1EtBGGSe4erdynZ2r2pCYCgC6DPb1ziVuOBcWO1+De3tr8TorzSH6HvO2eKVWHWRtZU4eAezrQVZraQGIeEb/rlYhbWE5ceTflyi71JQaMMu2sOF1rJKNYfuXURL9W8LycwyVNRaCAiBIyOAPcZulY6bYXs3t4C+px2aWHlYuQNonF6uADZBymunGocysT15q8j4nGTkVUUI7AmB0qLE15ORHCELNuIarl+Gi/dpIajERmArtpYQjJD/0zTSHYkR/GDrOF7zzjGrLaAhE7ss8JMr6F+aSCPDGsfjRuArGkJACJwbAWxWbVfc0OH+V2zZpspeExoDseVsCJBYyXttCvU8M7Yb01ImlGjrR2N2ALdY/DACJBl2v1DKCvOWc++sxPcUjDFnsNnByCUx0GL+vDso7pHhaHVbi08tedGBb6Yx69WHFm3P79hlHg5wqVSGP3jjDD73FyAz9VMdRK9JopVAe5BXHSEgBN6BwDV00vKbMR/4UBKazZW9JzQA6lkJxOGMuvFq5CDath6ryCgVn0sFJVIiMxJ90doCAug9+n/LMEPgh94TLHIs6TXVYZ5cwvWj6ZX3duVkgg7B5NKbc7eA1155IMkk2K8lm4wTY2zXnKR2DXzQ0doDGVp9osMsrOGHVISAEBACn0YAH8opoJo9LvHI8fBN2rIjJDQGOqthdkyrpiw4Fy6cJY7znQUlgk/Lhi/hfS2JgT8UZyuO/Z1Yqa9zIcC8sN1J5sWSQmBMEsRlSYxWxZcgOr4tds8SU0tktjxG18Bvb1KDn2FHBj3csmzjR1cUhYAQ2BoC2FsSGOJkfGwae5rfxG7hj6mbFur8ZKv27EgJTQz8l2jQWkpFwvAKFyvAOB4Gc2kxR41SxEcQUKJWgQd40mpyCyn9flQErkEwmzvMGT7nCsbVLuawJTC8VwB5VO34nFzopO0m5oIBS8yest+fGyT1LASEwF8QwE7hP+NHmsfwWBITH8OmTemY7T38xiLNJstRExoDmwyThOIWrkvHCFhAxCslDpyMDIOeXvxmyUxHd98FYkpiehBT3a0gcA2MEOjZ06nQf5s/FuDZcbHnQqbjOWxzciFJNRcCsxBAF9H7OKFWEj0LSjUSAkJgIAL4YGwTSQz+Obf4gi8miSHuTO0W/011z/BDvZ5H1Q8UyUfq6AlNjAIDyyDn/izLh9aYWpYRk8QQ6KFYvFcRAntCACMZ/6+Gh/fXZED38qAOj0yqIwSEgBAQAkLgkwhYEsMOMgv5uSSGOJPbF3JJjPFOOx5Vn7bn93u4Nrs7A4NnSmhSZbuEL67h6j0S1qO0JC/PcKFIPJTAkpkeGqorBLaGACs4XwpGz8ur7Ug+vA1UTwgIASEgBISAEPgLAiQetb/4IP7seaoni5T49rQQu2723hlj9swJTWlOXMIP7OSgKByjscLnOGu1bTp2WXhfujT3hMCRELgFYf4tIxBJu82Ja4fAtNnSP913sK6qQkAICAEhIATejgA+tvQXH/hUFgw5CdFz+gea/L/jLndnGAElNG/XQ3UoBHaLwCVwzs2CZvAwnGxBP6JkJhaO+mx/21NVaoJjeHkc5Gu36IhxISAEhIAQEALrIUDSkf5Zr/WG7ySJKfnjGlf4dJIZ6KcFutw7YwuW60m3kLISmoUAqrkQOBECPLbWDB5Gk50Vr5EjsbEVpRpkX0909wgr2FzChQN47lEA8SwEhIAQEAKbQwDfYv8bEzNntzEsfTx86UEA9PXP4cLfb74oodn8EIlBIbAJBFjB+ePEyT28zr05kOOcHFnjtVQw0uzWPDchuZ8Jdq9iudj2Z+eJ++f2JotfatUUAkJACAiBNRC4BKJ2j0x6ywOLfyP+3uMa6JSOmuG3/nENwdagqYRmDVRFUwgcDwGMHjs0BOgYOO/OTAmJ2oqQtbmHN3MTp0+MABiRrOGEcoUEx27Q/AR/6lMICAEhIAS2jwDJCz7yFq5cIsPTyl4DxIA2fj23wLi7hUUlNAM0QiSEwAkQ+BJk5OzuI1xsQY8oGFFWhi4VYqMSqBH8emlwvI6nJ16nK22HIwLHPSVrXtlVTwgIASEgBOYjgN9I75MhuWBHZlQiY9yVnmrG7/e9+SglNPOVTi2FwJkQsB2V0UaudjOi4YsxJ4lih2OPhQTnEq7cwxFwUvpfnj2OqngWAkJACIxDoLQr8wxdcL8qi3sjC36JBcVc2eNCop5yNlI7REsIHBgBC8jZVVh63CwHE4YVA1sr9/Dj3nc12OnKJTa7ufHywDou0YSAEBACn0Agt7CHn13rLw3w5/ETS2OZ6Zdj5aMTqNVx1Q7N6hCrAyEgBJwI1La/jcRzMrZOkputRvKGvDgWK4/wZtRxvs0KLsaEgBAQAkLgLwjgA7iPJfYF+DkejLPG4mHrVMQ99LvLhUMlNJpVQkAIbAkBz8MCWDki8N/dClIG6DSJ2+3q2JaUSLwIASEgBHaAQO4+Uo4hr3USAkhqC4drJlKrD4cSmtUhVgdCQAh0ImAPIGg1YwVrr/fVxLJdwwdW6OKiI2it0dfvQkAICIH9IkAyg91nx8QKR8xIaNYqNd/6Cp1y1IzXXRYlNLscNjEtBA6PwHUy9i1BMf44gb0XnFv6/zw4l+feBRP/QkAICAEh8D0ESGLSxyWv7cvwqaX/m+FkwB7/++17oCqh0SwTAkJgqwh4kxqOnmGMX1sVxMkXTo4bNS9R/X8I749wtM4JgaoJASEgBA6PQHrsa+2niuFTSg8BAOxDnHZQQnP4eSMBhcCuEfAmNaww7fnRzjZIOJ7/iEZM99TsWn3FvBAQAkLgewikycXaNr71EIC1d4beNvxKaN4GtToSAkJgJgLepAbyRzDOqbzPIBfHz1SEgBAQAkJg3wikuzP3IM5aTxUjmeEoM0/VzJUj+Mu/yKWEZt8TQ9wLgbMgwD0mbJl7yhGOoKVO7xBHAjyDpzpCQAgIgQMjwA78ZZKP3ZmfhIvX0aWVzDxDh2s9Gnq0LC56SmhcMKmSEBACG0Ag91SYGltrPzFmTUhwRn+MOnhNjm/NPkVbCAgBISAE1kMgXZi7h67W2J1pJTOP0C/+cY1Eaj30GpSV0HwMenUsBITADARwCDyp5eJsu+fdmnSXRo9ydg66qgkBISAENojANfBkj+hfa3emlcxwzGzN/7n5GOxKaD4GvToWAkJgJgK5R162SO0xGUh3aVhVQw4VISAEhIAQ2B8C3MvCghyFxTaeYjmytBb8DnXPTAqcEpqRqiRaQkAIvBMBHEPpZsccH3vcrWE17zoJ8wyvejjAOzVMfQkBISAExiFwCaTsKZajkwt8IQ8AYCEsV0b3Nw6VQZSU0AwCUmSEgBD4CALpsSwPE3sy7LF8HFH4e4+AqiMEhIAQEAKbQyDedR91jyc08RO3grT4DY6Y4fcOXZTQHHp4JZwQOAUCXyaD3iMsRh6H8uhp9IG68REFuiehOdSNnB/AVF0KASEgBD6FgD3l7D4lGnP5IJH5Vbjwf6Vdmefk5zidcPiihObwQywBhcApEGidHS6BgKHnvpStGvxr4M1uIkUG2exTqLOEFAJC4KAI2K773HtoLJG5BXwuBYxsV+YRfj/NApic40FnjMQSAidFYM4RNKD6Jlzs2Lw2hhtOi3PRFHjjPwtUhIAQEAJCYJ8IkJCwS8Nrz8NqPDsyILL1RbrVRk0JzWrQirAQEAIfQiA9ptXDBonNb8LF6xZKfJzuMTnALfAlHoSAEBACQmAeAtfQ7M877/8l3Nvy/75bTMsVkhhOH/wiXLdwlY6W0faUuzIxaEpo5imjWgkBIbBtBFo3Sra4f4YKJDaPVsWVf4+f5MYTzuBLRQgIASEgBPaNwL8E9u+TCCQj2HZe7YgYiQxXLYmh+ekTGVMDJTT7nhDiXggIgToC1/AzR7YuM4Fi+/7X4XrMbL+kGbzb/TP0r/+gWYKm2goBISAEtoXA3IU3khjzTc8pqdmWZB/gRgnNB0BXl0JACLwdgVvokRWxuYkNDL/zOBqOjt0ZkppXuPgDttPc3Pl27VCHQkAICIHPIYC956j0jycfhZ8yX4XdxwdQSGJ+O32WP0jGSwnN5xRYPQsBIfB+BOJ7Upb0/nVozJE0HMzognNjVwkHh9P6p3A9R3ciekJACAgBISAEjoKAEpqjjKTkEAJCoAcBEhtutLz2NMrUtbPP305Jx5IEh0SGM9N2RO41JTNLaC4UT82FgBAQAkJACGwfASU02x8jcSgEhMB6CFwCaXZC+IMy3o8oHE0jCfl9uOy4AMlJXEhe6M8ujhrAh/HwDO+5ZyZtN4I/0RACQkAICAEhcCgElNAcajgljBAQAgsQIKFg14ZXEo41CgkKtEv0SYT+NVwkRSpCQAgIASEgBISAAwElNA6QVEUICIHTIUDCcQ3XT6dX3q9V2MV5hIt7cl7h0s2eayEtukJACAgBIXBIBJTQHHJYJZQQEAIrIHCZkht7Ek2808JvtZ0X2CFR4WIXhsTlD+F6KolZYaREUggIASEgBE6FgBKaUw23hBUCQuBNCJDgWLFE5k1dqxshIASEgBAQAudCQAnNucZb0goBISAEhIAQEAJCQAgIgUMhoITmUMMpYYSAEBACQkAICAEhIASEwLkQUEJzrvGWtEJACAgBISAEhIAQEAJC4FAIKKE51HBKGCEgBISAEBACQkAICAEhcC4ElNCca7wlrRAQAkJACAgBISAEhIAQOBQCSmgONZwSRggIASEgBISAEBACQkAInAsBJTTnGm9JKwSEgBAQAkJACAgBISAEDoWAEppDDaeEEQJCQAgIASEgBISAEBAC50JACc25xlvSCgEhIASEgBAQAkJACAiBQyGghOZQwylhhIAQEAJCQAgIASEgBITAuRBQQnOu8Za0QkAICAEhIASEgBAQAkLgUAgooTnUcEoYISAEhIAQEAJCQAgIASFwLgSU0JxrvCWtEBACQkAICAEhIASEgBA4FAJKaA41nBJGCAgBISAEhIAQEAJCQAicCwElNOcab0krBISAEBACQkAICAEhIAQOhYASmkMNp4QRAkJACAgBISAEhIAQEALnQkAJzbnGW9IKASEgBISAEBACQkAICIFDIaCE5lDDKWGEgBAQAkJACAgBISAEhMC5EFBCc67xlrRCQAgIASEgBISAEBACQuBQCCihOdRwShghIASEgBAQAkJACAgBIXAuBJTQnGu8Ja0QEAJCQAgIASEgBISAEDgUAkpoDjWcEkYICAEhIASEgBAQAkJACJwLASU05xpvSSsEhIAQEAJCQAgIASEgBA6FgBKaQw2nhBECQkAICAEhIASEgBAQAudCQAnNucZb0goBISAEhIAQEAJCQAgIgUMhoITmUMMpYYSAEBACQkAICAEhIASEwLkQUEJzrvGWtEJACAgBISAEhIAQEAJC4FAIKKE51HBKGCEgBISAEBACQkAICAEhcC4ElNCca7wlrRAQAkJACAgBISAEhIAQOBQCSmgONZwSRggIASEgBISAEBACQkAInAsBJTTnGm9JKwSEgBAQAkJACAgBISAEDoWAEppDDaeEEQJCQAgIASEgBISAEBAC50JACc25xlvSCgEhIASEgBAQAkJACAiBQyHw/wFQOLbXeDn2GQAAAABJRU5ErkJggg==;" vertex="1" parent="1">
          <mxGeometry x="460" y="1027.5" width="348.5" height="85" as="geometry" />
        </mxCell>
        <mxCell id="ionqRGrCN8myQI989uEd-102" value="" style="shape=rect;fontSize=24;fillColor=#f0f0f0;strokeColor=none;fontColor=#999999;whiteSpace=wrap;" vertex="1" parent="1">
          <mxGeometry x="51.14" y="970" width="328.86" height="200" as="geometry" />
        </mxCell>
        <mxCell id="ionqRGrCN8myQI989uEd-103" value="&lt;font size=&quot;1&quot; color=&quot;#3d8bcd&quot; face=&quot;Verdana&quot;&gt;&lt;b style=&quot;font-size: 20px;&quot;&gt;Sam W. Armstrong&lt;/b&gt;&lt;/font&gt;" style="html=1;shadow=0;dashed=0;shape=mxgraph.bootstrap.anchor;fontSize=26;align=left;whiteSpace=wrap;" vertex="1" parent="1">
          <mxGeometry x="52.7" y="1170" width="327.3" height="40" as="geometry" />
        </mxCell>
        <mxCell id="ionqRGrCN8myQI989uEd-104" value="&lt;div style=&quot;font-size: 14px;&quot;&gt;&lt;b&gt;&lt;font style=&quot;font-size: 14px;&quot;&gt;DoB: &lt;/font&gt;&lt;/b&gt;&lt;font style=&quot;font-size: 14px;&quot;&gt;1973-05-15&lt;/font&gt;&lt;/div&gt;&lt;div&gt;&lt;b&gt;&lt;font style=&quot;font-size: 14px;&quot;&gt;First Visit: &lt;/font&gt;&lt;/b&gt;&lt;font style=&quot;font-size: 14px;&quot;&gt;2008-09-10&lt;/font&gt;&lt;/div&gt;&lt;div&gt;&lt;div&gt;&lt;b&gt;&lt;font style=&quot;font-size: 14px;&quot;&gt;Procedure ID:&lt;/font&gt;&lt;/b&gt;&lt;font style=&quot;font-size: 14px;&quot;&gt; Null (not in treatment courses)&lt;br&gt;&lt;/font&gt;&lt;/div&gt;&lt;/div&gt;&lt;div&gt;&lt;font style=&quot;font-size: 14px;&quot;&gt;I&lt;b&gt;nsurance Provider:&lt;/b&gt; Permeculea&lt;/font&gt;&lt;/div&gt;&lt;div&gt;&lt;font style=&quot;font-size: 14px;&quot;&gt;&lt;b&gt;Address:&lt;/b&gt; 3194 King St. W. Hamilton, ON&lt;br&gt;&lt;/font&gt;&lt;/div&gt;&lt;div&gt;&lt;font style=&quot;font-size: 14px;&quot;&gt;&lt;b&gt;Telephone#:&lt;/b&gt; 123-456-7890&lt;br&gt;&lt;/font&gt;&lt;/div&gt;" style="html=1;shadow=0;dashed=0;shape=mxgraph.bootstrap.anchor;strokeColor=#dddddd;whiteSpace=wrap;align=left;verticalAlign=top;fontSize=14;whiteSpace=wrap;" vertex="1" parent="1">
          <mxGeometry x="56.71000000000001" y="1210" width="313.29" height="110" as="geometry" />
        </mxCell>
        <mxCell id="ionqRGrCN8myQI989uEd-105" value="" style="shape=image;verticalLabelPosition=bottom;labelBackgroundColor=default;verticalAlign=top;aspect=fixed;imageAspect=0;image=data:image/png,iVBORw0KGgoAAAANSUhEUgAAAj4AAADICAYAAADoZuuBAAAACXBIWXMAABhMAAAYTAGIN/zbAAAgAElEQVR42u2de6ztSl3Hz70EBNGwCM8rD5dXJVwVXReIBI1ajI8rGiiGKCDK4qGigBZFBAMW/ENFxQbNTZRgFkTxD0koooIJkipKFJVUHopcwWIIIgZSDH8QDLjtxul1zpxpOzOdvmZ9dvLJydl79bHaeXzn95orFxcXVwAAAADOAR4CAAAAIHwAAAAAED4AAAAACB8AAAAAhA8AAAAAwgcAAAAA4QMAAACA8AEAAABA+AAAAAAgfAAAAAAQPgAAAIDwAQAAAED4AAAAACB8AAAAABA+AAAAAAgfAAAAAIQPAAAAAMIHAAAAAOEDAAAAgPABAAAAQPgAAAAAwgcAAAAA4QMAYXb+K1d2DceGrOHUUDSUDXXDhaBqyBvShj3PDQAQPgCwRbGjChxTLsVRzLMEAIQPAKxZ8ERCtLiIHR2XVqAdzxYAED4AsDYLT2YgeGpBKSiEm2vomAPPGQAQPgCwdsFTir/Hl+JlyHojPnfSnA/xAwAIHwBYVPQcOqw1tQhSPow8f6Kcv0Jkft6VeKT9ASB8lhiADoJYBHEmgqPg8vcRLx8CjuWpNdadxHdMjrAY3R7zg8i8XVwS+wSA8JlswInFCtYkHkFHm6rLSg1CmIQTRfTUUwgejdBqrxefoejRuRJT2iMAwseXNaeNM6g8ZaboMlX2NAzYoKXzpLHyHGYUAJ8XWmf2zLvGoZp2CYDwcR1c9mLFWnpMwzUho3HARkVPLVxQu5nvo7X8HM/kuavPXB1DcHcBIHysAwWLmcWOLuuFwQu2NgHHC97LpeAqzuCZx7J7T/l/C5luAAgfI+tOaujGauuNtKX0bw9aFmb3vRBQO0VQ7aWg51ScozcGiEYCK4/pWYXoke6pDNldLMaRWrYMi9+pYwcJFAAIn974gKECa6VY2SYmNUc8pOfi9gJEj/sCJmThk0qJEbse4cO2HgAIH2vBU/ioOTJiMpEh4BnW6mqpmWRnFXXteJUof1PHDDJFARA+Vw0eXYJndrFjmKKa0FhghZMvomfeZ59L49RuQPjwXgDOXfj0lNCvxUByWNEAF6mCjMYCK5t8ET3LWdkizd8RPgAIn2uERKkRPKe1Zj8oVWmpywFri+vBCjnvsy+6FkEENwMgfHRWHt1+QfuVD3RXDWY0FlhBEkB9zttDrNjas0f4ACB8WitPpYnhOWxowKspSAYrEeGlmk0Es1t78p64K+r4AJyr8OmI5am3aJqXBryKxgIrSKEmdmRl1p4e4UMmKMA5CB8henJlADhtdYUqfZeSxgIryOKiptT8z78cSnCQ9ipD+ACck/ARnb9SrDzHQAa9lMYCC7XBE1uorMLaE1sKH94VQMjCR2wBIbu2qq0H9ym7L+Ovh1W6WWCZTC5NPOMFyRAAZyJ8NKKnCGG1I006ZNDA0gHNtMGVWnsQPgBnJnw0oicLxcQr4ntqrD2wUPtLJJcxbXA5a09pKZJIhgAIVfjoRE9Ag15EbA8sbO2paYOrsPYcET4ACJ+gRY+02iOYFJZOX69pg8uWsTB5/mI8lIUPWaAAIQkfzSaeoYmeVtQRTApLW3vYlmI5a6+xtU3ZSgThAxCS8FECLkMUPXuxyqNIHCxt7aFC83KxfVbWNo3wKXiWAOEInzy07C1F1BVbrz0EwVh7EN/zP/+DrbVHEau3F23leQIEIHyUVU1wq1GRkUZlXFiFtYfnscjzP7nEVknHXVBhGyAQ4SP83rU0KESBDXgJ8RRgaZnZTXDOikyuRd3cTpl0mm16sBoDBCB8ipA7NbEUYDgxqpvvlr4WAVJmEJlcG8uk0wgf3JQAWxY+SqomFWRhCutJ3LoaxSRyEhNRvAYRICyCtWY/Jm8bUkqLC6w9y8ZWpQ7Hl0p7ICN0e+8/wlKH8NGZ36kgCz4HmlQzYXSRL7XbtSZjR8dp5DViqY/taSOLWnv2DsdX7My+6bFIttgR8oDwuSpbgZUo+BhksgHrSR/pzPd7UGLbMiGEKp/py9LASzbQstaezPEcFft0bTqpRR6Pap7LGQsfZUAoiDsADzEsquCphdUnV1xdRY/4KWacEAtdQL/4m5ctCkTsUHseLKobs/aIc7BdxbYD2o9KSAeuyjMWPgnBeuBJQKjpvoUYaHYDx3W5mZIZ7jvuS09WxFnhYeIlfm6ZtlmNsbYpwpWqzdsTvXWbpYm7C+FjtTsxgKH/vBZiZmd5jmKKgGKLTJ2D5u+nsXVbKFi4GmuPs7VNI3wKnu1m3n8lLzikvsgi5ByFj1LBlEh38CEeijGuHI34OU0s2Oq+icxHiQclqBlX8nLWnnzEeQ5Ubd7k+4/UuEEp2QLhc6bCJ2G/IPCYDZWPbUealfVkVp8hN5cmoPUwUhiSOLBMzNno2CplU1OqNm/P2hdr+iNWuzMVPgWdGDwEDXq1ZsxVIVe5zrHDWjAqpoOg5sWtPV5W94qAwkK+LTfXVYsnyX1NeMe5CR9lUCfuAMbGTsQezzuLW0Gx5sQD1qx05DNikF3W2hONPFdC1ebNvX95HNkpqe1k5p2p8ImIOwBP8THZBOevp86gGarCK1mEnPsI+3Jt39qjEflY77bRBmKdwEH4nLfwORLgBZ5iHvYTnL+csmaKJpbo0PP308iBl0rNy1l7vFSi15Rq4H1OI1Yjj+fTWlsl4YMV9gyFT0J8D3gw/U9ljSmmrLKqcacdelb40cjJksXFctaek6dz5lRtni1DNPMkVrVBzAif8xY+GUF64GE1NVX8TTblRKPJ0jl0uPHyEZNvRTzIoqLc276DivBhwpz2/ZXS+2s3Mo4EO1O3s1y0UipeuJeDm8UCqKW9RizRVntOBKlSfT6nEOK2hE/OoAwehE820flPE1t8jj3CJx07cXbFF8As1p7Kd9tUXK+kQU//Dk+O+/wtAfF7GxI+BUF64CFwMJ3o/PnEMT6JTvgo1p50xPkzXMmLW3v2Hs9bUbxwkays8up+et3aRE9BvNe2hM+Jjdpg5KpssvgVJcannFH4pD6yHXFzLW7tST2fm+KFyy+0MjEuFOI96ygFslAtJbdULi1sSjEPtq6rVHJpJcIq3Lq8IonWNUY29IZjfPBPwhirTD3RuaspXQsa4RMpBRnTkSvVi6meDQy6X72W6NBkABIXuR3L3zWLD2ls4T2eofBJ8U+CpxX2cWLhc5pB+MSSFbQYae1JsQwEZe3ZU7xwc+3hpHtfFO5F+MSk2oKn7Kgpgo8ndS1ogpvlYoWRJ9HGwLpxa09H6QNiOmaK8fEUIxh1vEve4xkLH4qrgQ/xU25M+MRTZGjIbi5iALZv7ekofcB4OW9Qc+RwjrJD+BzJtjxj4aOsTInzAR+DVebD7TVHTEWH8Kk87C6fYkldzNpTTSE2Vesgz3zSd7lX3NxOsXLKOQ4aFzclCc5Y+GQEYcIEAijxcI5JYyo01/CS4Shlo+Hmms/aU0+5gFPiwbAUzJAwcW0au11/6rLQSbE/xN+dsfCRB39WqLAm19nUwmen1uPwKKZwc83XVrKpV/DK9iVUbZ7W2lO3/V0RnInlebqED4V7z134aHyhpPfBGgbA49QxFRrhk3u0DLCImHeinLQemZIhhItkWoF56uijqcMCRCd8KuK0ED46dUy8D6wlZmMy14ImxqfycE7cXPO2k2IOt4UifE48+0nfZ6r8rrbtUxrhs1OEFFa7cxc+irmYyqSwFj//lMULZUuBl/3AlNUpq8np20g8l1tRaY+MjdM950pdeEseicjiPFGH8DkgXhE+fS6v23eu5eFZT36RWCFGPJNRA+AkK2zxjoqOVPYxRQsTVpOz9rNyrgKsSntJPJ3zIFy6u5me2erHJd37dHFN9QifxCWkQ7S3hAVNmMJnpxE/bWE3TPdmK9Byyh3Fz+hZTuZ6laybpbKSv/BUMC3lHU7ePhLpHe5mFuJHT8KtniNLrK2xtfY6RFLIRa579iPd2Dulj+4dxwz2tgxN+HSsbtRdaBOyVYxWGASLrzCVXdm5+6Bx8UYeJjIGxgACmnuETzzBeHGcqS+tNo5TEj61JsantDzXNXWXpD5ajnz/JC6EKHw6Yn50IihlkB8UjQSKjw863nucBK4KlFSCqJ0nIDnehHc4W/xXPuM1vVgFNe2lmsNKqARnrzLGRYmROyq/yzwIn9j1WSu7udPHQxU+0kRRDgggueLtaatiSHSw/dhBTTNp4/Zwt8p4q5KruHGznveVOJ6fas3zBzTvF5iQvQhx6Zy1GDvzmawpq7ZaSEKwFvccORYv1AmfdMT2F4UiVPdrm79GHn9zw49uoP/fteHLG+7VcP0kwkeZiCpDAaTGBp3E8dEKH2IkLFuVJsOnbeTZyKC6zHAQTKWYk/jMJ7eT72Jx0jlzeZDQvK/U8fwlaeyzCJB67gWFKho8nrc2aec+QgtchY8QEO24lMzwrDNNaIVLTE6iET6Fq7VG4wE5rGTuKpV2lDvMWS8Sx/77yvr7A8R7/IuG9zf8l2aO/mDDyxse6F34aLICLkawuGVICfarRYc4Cbrim7IJhY/OrRgbXisJbbJV3oHPooLX7OPko4ghaeyztYtsyv24pHfZWn/3wuotWwVr0e9iwbGDWHxuZ5gi37pRCkH5f9/zOnVSi+YSPqp4sBiXDq7jkiYmqXKMyVHvfTemFIFmXK/F+5De1TUCJJ147uqjNnxXj1OO+5IV9PMfafgzS13x3oY7TiJ8NCbn1MIVNhQvlE0thETjz6R9YDoDtTs6feFb+PTsEJ4bHFcrg+YukAmu8lUzRYrrqbvalzr5jHC/kMY+T/JAIt7rQSNCEolM0C5qckVYyBNW7WEc01E6ZNEOTWiHqYWPEg9nXOtKc5z1/WoEYeZB+MRjg+E75oQhsgnmLpvrHwfO+xzl819jcC8Pafgp3wvu5ueJDf8woq/dMrnw6Rj8M08DiHcRJBpOLgmtncWkaezftxE+kum+1nT22tDkH1Q8kc9d2ZXsn6Ohy8FlF+icwnZGta0ShVQRJ/m1Fo9JRckcpAbPpvIlpjwKn0KyhhuNgT31sfIRFlSneC6NSDn5WJg4ejz2HueuUvSbg5Si3/atukMo73vO/X02wqf5+baGT0uf/3UPz/Smhr/U3PfbGl7T8IqGlza8oOFXG35HuL8+I33+/ZO5uiw7WWsRKkYMXF4KKIr7qaQOsHNcadZDgsxS+KTyOTX7U+16TP46sZQHtrIfm15eGlrdyjFFDKW2RXyP+WS4FWrN/8vr/99iJNOKtttjGy2Ec6WIvkKK10g1E+5+KuEjWUfiDqv0YSjAf2xFdE22ZWU5bh81x6ce2vNRmkdky6H8rlJFzCYeRE8tzr9zsCCeeo55vPLZB/V89t4NH9Kc/8YR3+97pD52ae15fsOXWR7/6oaHLi58DNxjueUq5zSy4ZSSJWnn6C6JDK1ENsKnlAcgkwFGsvYkGmtFFcBEmYxdLSkrpMxhFRdZtg3S2P2ukPtESJsFVSoCoRUbmTQBtZYlOe6mjb2JJHfZQYrp2WniwI5TpoG3SRSWYiCaUPgUsltfc2w09D2U8b127MO1q6VLI3x8ZeMlJosjxWqVj7heZmPN71lo7A2FzwN7zv2HHf3yhY7f7SfF8R9peJKHd3PDKoXPyFih0lG0WNf8kEzzew8Wi2xgVRX1HHvosRLtNNaKKrCJshp5jtxQrGauKe3sxm6U7VZLq2JZnMjCpEuQVEu7ERUxfprAImbk0lUESDyF8NGlj5u4n6WYw72unpnHgrCFxbzi3Rpu4zKTnkE+Ym60nvs0rsI+saoKn3t3fO7J4u9f3/Aw5Zg3O3y3p4pj/6jhbh5rez1oE8JH88L6UucryzS9xCXATpl89xMJn0JTmt1E+Fxlsg1ti4yxm5O6bGUwpvYS21RMOhZYxeTNJHwyz+c+WGZLTWrxEWNfpZR8MBE+hWK9zkcKnzbm6+hSdVrTp2OP41NuKXxOju2/vOJedyg3eWaaGJ+7dHzutoZnSv9/q3TMP1re23eL4y7PcQcP7+RVfVlpWyxUVrm6vZTA1sxBZTtVVDWpC9NVlGtI+Ej3tu9I/Q5B+DhvTqqkrY+pvZQ73O9+48/9uLL7yeYuVGjoYsomGOeM2o/STr3H+EjupXTg2LhDkEU9Lk5bi4Uc+5jbptWbxiVN5ZZUxoZsRJurRgrq3sWcZHm55NMdn3lhw98qv3uxdNy/W9zX/Rs+1fCJhvt6eB/Plu7jXZtxdTkEuRk1Yqnj1Zadrs0saTvfaQLhc9I1aAPhk2usRKNMyitc5bu6nKKhtHWL61aWg0sIgjNbi3hTLCzxikTYFMIntXCdHEdYUEyET6obLw2EzzXfQeM+3lm+/2Ig862ynPijOa1zSvzlccQCsPA0luYGwuGjmr9f3/AfDY/pcH1d8kmL+/pdn3vTNT//Kt3Hc4IRPh2N+GTx+cyhsWS26t5U+HStqoaEj3Rc3GfS3Pjk67Q5qVKrJ3a8tnVKe0jbVLTBwCtpA/WVFZUHmFj42FgQMlcrgEa8nDrS6k8Gx8Z97vexlY6Fi2fIGj5UomLn29UlpYzvLJ93PGIczEa2rd45s/n5Gekzt2n+/tyGv9f8/hul4z5nad38sKe+04q2f274eMOdgxI+mlVgYWElih1ESyx1nMSz8Em7zPcDwufYsRrLx6Rir83dYpuFIZUqqEfW/Clsn6P07I8BCJ94aaGhuKeLtbTlqYSPgwUh91jH5zSUbGEifLpcdRpL/cGiHVaGSQi1hfBJPLyvwiK+J3J1synPzteYlhlc610dFpWna37/YOX53tfgfv5OfPZWj9aeNzW87zJDbLXp7B7jP2oLpbtzEFd720HJRPj0raoMhE/RYZ4eVd9jy6nsSn2mo8fJbdA0Hto2FeJZFgteX07Drdf0TJU+lnm2stUO499pAuFT9LhD+oTPSdduNMInspisUx8LFMWKm3ponzYiNRkRj5V7qgF0Mojx+UXpM3+j/O0pl6nmHcfdy0bYKlasp3joOw8R5/rtrtiekIRPZlDc7+CaDi3XaLAxa1oIn3ggtVArfPpEmEb4HDb8flNTt52S9ZD6vvbQgCPvEh5QFlW94LXzNcX1zCR8SssMwjFbOHQKn6FFXpfwGXDbJw57fMVDhQpNawppMl5zHyLVIlP0NCIeq/BUw64Yev6K8Hmr8rd3NLyk47g7KO/huwbuRb7Ooz30nZ8Y2qoiJOETDzUmtdKy4+R3GFp5WEygqamptEf4pBbm3y0Ln5OFGdvrNhG2dT9Ciu9RJorjwqInW3m7PHlub3vDzx/GuD90Wzj0pbAbCp9jj9s+sd16RoyPR8v3kRgulMuRbbS64lbmwsUtWXkqflgNJfgoguQN0u/bzUtvMLSoPXXgXt4uffaRHsuevGzwswEMzNGQJUfpcK7CJ3HcH2avqTaamPrze4RP1WOqzHxnL6ykhk81l+jpiAmoDVdTx4CETzan1WcLokfTx3wVwiuu2JVNiEYWL6x0wqfPamMgfPrcY4mlBfVoET+zMxQ+qY9SH2pxxqmzsnzUZlPeWW5oiXmz0j5fOXCND0jH/tzAZ/9T+uyzR/adO4mU+HcbfT6AgflosOOx85YHSh0Yl431Co3rKZGtNgNmXFX47A3cY9kUhbpWIHzKIdHjO/hVkzWymzu+R5z70AbYL9S/jjNca6+a9NcamO9T+Ihzfb/D1ijHEcULc824lJm6cHTCx8A9piQq3DExcFsfHISF9ULSsZBg5jiW5I6L+1GLWek89YA78HnSdd4ufvcE8f+HDVzjbdKxv9HzuXso3+e2kX2orSH0B+cifFKD/a9i1929lWNdBpdKc/3EZFXVI3zyAaGX+s5eWNjVos3cm1r0aK7fJzbjseZzQwvIrBY8SdDVE18nUiwQ5ZUVZyN6tBxE7QTvMJE61TaSFlxqqYhsKNliQPikAy4U42ro4lyZoxiNDAXShcM1dtK4vpta+EilHKqxe1VKi4qhDZqfLl3nPeJ3773cSsKiJo9JpvVnle/0KMc+9ArpHC89F+HjovJrR7Vtaymqpb2GrurwpoFxuhWKgRn6GJDwqTpiECZxbxlYz5KBifA08fUn2RTTcMBMJjp/oriDVy16OhYXe0dRWbha05S2kVg+61hXwFASUwcH4VMNLECNq6Hr9tQzyOjMTRYepnGDPaLHJcFl71ATrHVHZmM3WFV2Hxiac75Xuc6/mAqTy8Bn6bhPDHz2n5TrXFqLHmzxnR4nLUw/LP59UvDCx/RldmzQljoMyLlh5xAd6/q0x1Rpeg+RZnDq9S2P2W5hhe+41sQg7OfaqNI0wHmq+j0dW7TUM7+D4xTWJiHicx8bDy+ZVDEiuDhzsRy4utuk8SztEC+tGyS3nMgvpPcY+YqZ09x7ZdBXUsN2ZzsOy201GWE5NS3LcRB9oRTH7jv2qdwZXru0yKR7lOZabzT8nt+iHPfIns/eqrnOfzc8o+eYOwuLVLsY+1DDTSK+5/L/jwha+CjVXE1epm6n97ynoWTSQCyvEIoeU65srs97OppxXZIO0ZRbdrJ6w+9ZNcXPuju3ybOU3JZTxPfoBPPFzO9gp7Tb2MP5Mk3Qf3FlI8U2bSvH97ipjh6tTtHwYuyqcWnX0b4ih35xYWhtqRwKkrb9qxx4H8Yi0mLDTrWtZp7GkdPAQqNWN9LWxGRdGMaIWtV6utzUU3Odb7D4rh+XjvuTns/dr+FjHW3wUtC8RrixXnkpvC73BlM+84bLWCFlnLxPsMJHUbAnx4FKXa2cBKWuUqymw+aSyypTY1GUnYx3IzZWPTgOTKcl3SMeg13VTj771gWaCXrXFTQ4savvYoo4IsdJNvMoeFYdyGwx8dsWsss9W53a+MFI3F8kxfNorWk68Tni+x8trVRG11Msjvue1PJ4xNiijuuZMheMdvVq+nIh3lFbHDeRBNk1VeeVBdaFZlEonysWfap2iYFsfj4onfu1lt/zN5V7e0HPZx/TMy938Vl5D67m52bx+08Z3+NGRU/uuNloafFwM0W8RIbHJbp7Uhq98U7hphvLGXbsdIPvWmcpS2a+j6JPePqayAwzEkdbXDyLsKwvHkQa0MuOQbveagyapl3UA89ip2yUfPDQP2rDcanoGJdK5f4jxwVBMeKecwvrjGqxil0ybi3H9NqHC7sjXq/revHIex7Vv5qf35fO8RCHdvk+jaB8VsMPNvyAXGun+Xlax9ii8jlh/bmpIybpPasWPq0qHZEBcTHC11q4NhTFzXKhiU2IDUyOhcM+LZXLYCkVXazawWFr+3atYdLXDFhpx8CcTnT9o7hGtmRNJoNBt23fpWKdu+jpM1uuMZV0PINjh/irfC9CDCfTdKCqfSnem20toJOjYNpJBRJrce295YJVbl+lq4tZfP9Tz1xQXPFUAHbA63Bh+l2UrVyGxO7B8V4vt3/468s0dsfjH9Dwxz339mOaY14k7vnfxGc+LQTUn4oU+7t3XOul4vNvWa3wkdxUxQjBM3bzyURpOG26YGoYLBZJ5tBk6srIkotgsxWYPVTILZbaq0njUqg7VrDRGbyPzME0rZtQsisb3jx3IEZGNzlP5tbrmQSrqesvifEvXrDNeYkLk6xHqeQu3M+4eKhtF6ZiQZQqi9tS/O6wkj5yuXHpDwlR8yzxjL/Q4Lg7WlzjDbYuucULf7VplUoD3EviotQo4oPH+zlsfQA+g8n2sMIJbqes4uozeh/HEaKnCEnAOwjBSWKZpEk7l9Kfd4E8412Pm3W3xfFMWny3MUV7xvrRLvhszcKnGjloIlJgDe32OHV8zwYG78rCwnMK1WJp6HbYXAD3SgV3uiaLBizeJu4p9a8XhiR86tBWiRDEyv40R3zPRurZZJK5vRZW2VzKNNmdYfu4Jm4Q0QPgvd99s9TPnrZm4bM3zEQIepUImy2WeVWcj0nlcDhLq8RJigFE8ABM09/k7TUevfp0diXAWF4lYsaErQSyZi5lFQAAwMu4/DJpPL452Do+ACvIMJOtkhc2GYoAAOBtTH69NB7fgPABmC+bKeX5AADMPia/VxqHr0P4AMzj7qpJRQUAWGRM/owYhz9qdRwPD8DZ3VVPXSAOAAC0Y/GXSmPxbQgfgGmzEge3KAEAgEnH4m+VhM87ET4A07u8yOICAFhuHP5hSfj8OcIHAAAAQhY+vywJnzcifAAAACBk4fM6Sfi8FuEDAAAAIQufd0rC57cQPgAAABCy8PmIJHx+DeEDAAAAIQufz0nC5yUIHwAAAAhV9NxHKST7PIQPAAAAhCp8vk4RPs9E+AAAAECowuc7FeHzZIQPAAAAhCp81A2jH4vwAQAAgFCFz/MV4XMLwgcAAABCFT4vV4RPhPABAACAUIXP7ynC55EIHwAAAAhV+LxFET43I3wAAAAgVOHzbkX4fBXCBwAAAEIVPh9ThM+NCB8AAAAIVfj8jyJ87ofwAQAAgBBFzxcooueS+yJ8AAAAIEThs9MIn3sifAAAACBE4XODRvjcHeEDAAAAIQqfGzXC54sRPgAAABCi8PlqjfC5C8IHAAAAQhQ+D9cInzshfAAAACBE4fNNGuFzPcIHAAAAQhQ+34HFBwAAAM5F+DxWI3zuivABAACAEIXPEzTC524IHwAAAAhR+DxVI3zugfABAACAEIXPj7NlBQAAAJyL8PlpjfC5P8IHAAAAQhQ+L9YInz3CBwAAAEIUPj+rET5fifABAACAEIXPczXC5yaEDwAAAJxLcPPXInwAAAAgROHzDI3weSjCBwAAAM5F+DwC4QMAAADnIny+HeEDAAAA5yJ8Ho/wAQAAgBCFj27LiqchfAAAACBE4fNEjfBJED4AAAAQovB5nEb4/DzCBwAAAEIUPrdohM+vIHwAAAAgROETaYTPrQgfAAAACFH4PEIjfF6N8AEAAIAQhc9DNMLndQgfAAAACFH43KgRPm9C+AAAAECIwuc+GuHzDoQPAAAAhCh8vkgjfD6A8LxJNMsAAAEKSURBVAEAAIAQhc91GuFTI3wAAAAgVPFTa8TPHRA+AAAAEKLweb9G+NwT4QMAAAAhCp+/0gifr0D4AAAAQIjC5/Ua4fNwhA8AAACEKHx+SSN8bkH4AAAAQIjC56gRPs9A+AAAAECIwudmjfD5BYQPAAAAhCp+PqkIn6cgfAAAACBU4XOrJHreZXUsDxAAAAA2Jnwe1vDWhlfZ1PBB+AAAAMB5iSYeAgAAACB8AAAAABA+AAAAAAgfAAAAAIQPAAAAAMIHAAAAAOEDAAAAgPABAAAAQPgAAAAAIHwAAAAAED4AAACA8AEAAABA+AAAAAAgfAAAAAAQPgAAAAAIHwAAAACEDwAAAMB0/C+UP/0zCrMOjQAAAABJRU5ErkJggg==;" vertex="1" parent="1">
          <mxGeometry x="66.66" y="1018.31" width="296.68" height="103.37" as="geometry" />
        </mxCell>
        <mxCell id="ionqRGrCN8myQI989uEd-106" value="&lt;font style=&quot;font-size: 16px;&quot;&gt;Manage&lt;/font&gt;" style="rounded=1;fillColor=#3D8BCD;strokeColor=none;html=1;whiteSpace=wrap;fontColor=#ffffff;align=center;verticalAlign=middle;fontStyle=0;fontSize=12;sketch=0;" vertex="1" parent="1">
          <mxGeometry x="56.71000000000001" y="1330" width="121.5" height="40" as="geometry" />
        </mxCell>
        <mxCell id="ionqRGrCN8myQI989uEd-107" value="&lt;font color=&quot;#000000&quot; style=&quot;font-size: 16px;&quot;&gt;Request Deletion&lt;br&gt;&lt;/font&gt;" style="rounded=1;fillColor=#FFFFFF;strokeColor=#DDDDDD;html=1;whiteSpace=wrap;fontColor=#ffffff;align=center;verticalAlign=middle;fontStyle=0;fontSize=12;sketch=0;" vertex="1" parent="1">
          <mxGeometry x="198.21" y="1330" width="170" height="40" as="geometry" />
        </mxCell>
        <mxCell id="ionqRGrCN8myQI989uEd-108" value="&lt;font style=&quot;font-size: 16px;&quot;&gt;Manage&lt;/font&gt;" style="rounded=1;fillColor=#3D8BCD;strokeColor=none;html=1;whiteSpace=wrap;fontColor=#ffffff;align=center;verticalAlign=middle;fontStyle=0;fontSize=12;sketch=0;" vertex="1" parent="1">
          <mxGeometry x="474.91999999999996" y="1330" width="121.5" height="40" as="geometry" />
        </mxCell>
        <mxCell id="ionqRGrCN8myQI989uEd-109" value="&lt;font color=&quot;#000000&quot; style=&quot;font-size: 16px;&quot;&gt;Request Deletion&lt;br&gt;&lt;/font&gt;" style="rounded=1;fillColor=#FFFFFF;strokeColor=#DDDDDD;html=1;whiteSpace=wrap;fontColor=#ffffff;align=center;verticalAlign=middle;fontStyle=0;fontSize=12;sketch=0;" vertex="1" parent="1">
          <mxGeometry x="616.4200000000001" y="1330" width="170" height="40" as="geometry" />
        </mxCell>
        <mxCell id="ionqRGrCN8myQI989uEd-110" value="" style="html=1;shadow=0;dashed=0;shape=mxgraph.bootstrap.rrect;rSize=5;strokeColor=#dddddd;rounded=0;fontSize=12;align=center;container=0;" vertex="1" parent="1">
          <mxGeometry x="860" y="520" width="330" height="400" as="geometry" />
        </mxCell>
        <mxCell id="ionqRGrCN8myQI989uEd-111" value="&lt;font style=&quot;font-size: 14px;&quot; color=&quot;#404040&quot;&gt;Has Procedure ID:&lt;/font&gt;" style="html=1;shadow=0;dashed=0;shape=mxgraph.bootstrap.rect;strokeColor=none;fillColor=none;fontColor=#999999;align=left;spacingLeft=5;whiteSpace=wrap;rounded=0;" vertex="1" parent="1">
          <mxGeometry x="360" y="860" width="150" height="20" as="geometry" />
        </mxCell>
        <mxCell id="ionqRGrCN8myQI989uEd-112" value="True" style="strokeWidth=1;shadow=0;dashed=0;align=center;html=1;shape=mxgraph.mockup.forms.rrect;rSize=0;fillColor=#eeeeee;strokeColor=#999999;gradientColor=#cccccc;align=left;spacingLeft=4;fontSize=17;fontColor=#666666;labelPosition=right;" vertex="1" parent="1">
          <mxGeometry x="370" y="892.5" width="15" height="15" as="geometry" />
        </mxCell>
        <mxCell id="ionqRGrCN8myQI989uEd-113" value="False" style="strokeWidth=1;shadow=0;dashed=0;align=center;html=1;shape=mxgraph.mockup.forms.rrect;rSize=0;fillColor=#eeeeee;strokeColor=#999999;gradientColor=#cccccc;align=left;spacingLeft=4;fontSize=17;fontColor=#666666;labelPosition=right;" vertex="1" parent="1">
          <mxGeometry x="440" y="892.5" width="15" height="15" as="geometry" />
        </mxCell>
        <mxCell id="ionqRGrCN8myQI989uEd-114" value="Province (Optional)" style="html=1;shadow=0;dashed=0;shape=mxgraph.bootstrap.rect;strokeColor=none;fillColor=none;fontColor=#999999;align=left;spacingLeft=5;whiteSpace=wrap;rounded=0;" vertex="1" parent="1">
          <mxGeometry x="360" y="640" width="160" height="20" as="geometry" />
        </mxCell>
        <mxCell id="ionqRGrCN8myQI989uEd-115" value="Ontario" style="html=1;shadow=0;dashed=0;shape=mxgraph.bootstrap.rrect;rSize=5;strokeColor=#505050;strokeWidth=1;fillColor=#ffffff;fontColor=#777777;whiteSpace=wrap;align=left;verticalAlign=middle;fontStyle=0;fontSize=14;spacingRight=0;spacing=17;container=0;" vertex="1" parent="1">
          <mxGeometry x="360" y="660" width="160" height="40" as="geometry" />
        </mxCell>
        <mxCell id="ionqRGrCN8myQI989uEd-117" value="" style="strokeWidth=1;shadow=0;dashed=0;align=center;html=1;shape=mxgraph.mockup.forms.rrect;rSize=5;strokeColor=#999999;fillColor=#ffffff;" vertex="1" parent="1">
          <mxGeometry x="560" y="580" width="280" height="200" as="geometry" />
        </mxCell>
        <mxCell id="ionqRGrCN8myQI989uEd-118" value="October 1973" style="strokeWidth=1;shadow=0;dashed=0;align=center;html=1;shape=mxgraph.mockup.forms.anchor;fontColor=#999999;" vertex="1" parent="ionqRGrCN8myQI989uEd-117">
          <mxGeometry x="52.5" y="9.142857142857142" width="174.99999999999997" height="22.857142857142858" as="geometry" />
        </mxCell>
        <mxCell id="ionqRGrCN8myQI989uEd-119" value="&lt;" style="strokeWidth=1;shadow=0;dashed=0;align=center;html=1;shape=mxgraph.mockup.forms.rrect;rSize=4;strokeColor=#999999;fontColor=#008cff;fontSize=19;fontStyle=1;" vertex="1" parent="ionqRGrCN8myQI989uEd-117">
          <mxGeometry x="14" y="9.142857142857142" width="43.74999999999999" height="22.857142857142858" as="geometry" />
        </mxCell>
        <mxCell id="ionqRGrCN8myQI989uEd-120" value="&gt;" style="strokeWidth=1;shadow=0;dashed=0;align=center;html=1;shape=mxgraph.mockup.forms.rrect;rSize=4;strokeColor=#999999;fontColor=#008cff;fontSize=19;fontStyle=1;" vertex="1" parent="ionqRGrCN8myQI989uEd-117">
          <mxGeometry x="222.25" y="9.142857142857142" width="43.74999999999999" height="22.857142857142858" as="geometry" />
        </mxCell>
        <mxCell id="ionqRGrCN8myQI989uEd-121" value="Mo" style="strokeWidth=1;shadow=0;dashed=0;align=center;html=1;shape=mxgraph.mockup.forms.anchor;fontColor=#999999;" vertex="1" parent="ionqRGrCN8myQI989uEd-117">
          <mxGeometry x="17.5" y="31.999999999999993" width="35" height="22.857142857142858" as="geometry" />
        </mxCell>
        <mxCell id="ionqRGrCN8myQI989uEd-122" value="Tu" style="strokeWidth=1;shadow=0;dashed=0;align=center;html=1;shape=mxgraph.mockup.forms.anchor;fontColor=#999999;" vertex="1" parent="ionqRGrCN8myQI989uEd-117">
          <mxGeometry x="52.5" y="31.999999999999993" width="35" height="22.857142857142858" as="geometry" />
        </mxCell>
        <mxCell id="ionqRGrCN8myQI989uEd-123" value="We" style="strokeWidth=1;shadow=0;dashed=0;align=center;html=1;shape=mxgraph.mockup.forms.anchor;fontColor=#999999;" vertex="1" parent="ionqRGrCN8myQI989uEd-117">
          <mxGeometry x="87.49999999999999" y="31.999999999999993" width="35" height="22.857142857142858" as="geometry" />
        </mxCell>
        <mxCell id="ionqRGrCN8myQI989uEd-124" value="Th" style="strokeWidth=1;shadow=0;dashed=0;align=center;html=1;shape=mxgraph.mockup.forms.anchor;fontColor=#999999;" vertex="1" parent="ionqRGrCN8myQI989uEd-117">
          <mxGeometry x="122.49999999999999" y="31.999999999999993" width="35" height="22.857142857142858" as="geometry" />
        </mxCell>
        <mxCell id="ionqRGrCN8myQI989uEd-125" value="Fr" style="strokeWidth=1;shadow=0;dashed=0;align=center;html=1;shape=mxgraph.mockup.forms.anchor;fontColor=#999999;" vertex="1" parent="ionqRGrCN8myQI989uEd-117">
          <mxGeometry x="157.5" y="31.999999999999993" width="35" height="22.857142857142858" as="geometry" />
        </mxCell>
        <mxCell id="ionqRGrCN8myQI989uEd-126" value="Sa" style="strokeWidth=1;shadow=0;dashed=0;align=center;html=1;shape=mxgraph.mockup.forms.anchor;fontColor=#999999;" vertex="1" parent="ionqRGrCN8myQI989uEd-117">
          <mxGeometry x="192.5" y="31.999999999999993" width="35" height="22.857142857142858" as="geometry" />
        </mxCell>
        <mxCell id="ionqRGrCN8myQI989uEd-127" value="Su" style="strokeWidth=1;shadow=0;dashed=0;align=center;html=1;shape=mxgraph.mockup.forms.anchor;fontColor=#999999;" vertex="1" parent="ionqRGrCN8myQI989uEd-117">
          <mxGeometry x="227.49999999999997" y="31.999999999999993" width="35" height="22.857142857142858" as="geometry" />
        </mxCell>
        <mxCell id="ionqRGrCN8myQI989uEd-128" value="1" style="strokeWidth=1;shadow=0;dashed=0;align=center;html=1;shape=mxgraph.mockup.forms.rrect;rSize=0;strokeColor=#999999;fontColor=#999999;" vertex="1" parent="ionqRGrCN8myQI989uEd-117">
          <mxGeometry x="17.5" y="54.857142857142854" width="35" height="22.857142857142858" as="geometry" />
        </mxCell>
        <mxCell id="ionqRGrCN8myQI989uEd-129" value="2" style="strokeWidth=1;shadow=0;dashed=0;align=center;html=1;shape=mxgraph.mockup.forms.rrect;rSize=0;strokeColor=#999999;fontColor=#999999;" vertex="1" parent="ionqRGrCN8myQI989uEd-117">
          <mxGeometry x="52.5" y="54.857142857142854" width="35" height="22.857142857142858" as="geometry" />
        </mxCell>
        <mxCell id="ionqRGrCN8myQI989uEd-130" value="3" style="strokeWidth=1;shadow=0;dashed=0;align=center;html=1;shape=mxgraph.mockup.forms.rrect;rSize=0;strokeColor=#999999;fontColor=#999999;" vertex="1" parent="ionqRGrCN8myQI989uEd-117">
          <mxGeometry x="87.49999999999999" y="54.857142857142854" width="35" height="22.857142857142858" as="geometry" />
        </mxCell>
        <mxCell id="ionqRGrCN8myQI989uEd-131" value="4" style="strokeWidth=1;shadow=0;dashed=0;align=center;html=1;shape=mxgraph.mockup.forms.rrect;rSize=0;strokeColor=#999999;fontColor=#999999;" vertex="1" parent="ionqRGrCN8myQI989uEd-117">
          <mxGeometry x="122.49999999999999" y="54.857142857142854" width="35" height="22.857142857142858" as="geometry" />
        </mxCell>
        <mxCell id="ionqRGrCN8myQI989uEd-132" value="5" style="strokeWidth=1;shadow=0;dashed=0;align=center;html=1;shape=mxgraph.mockup.forms.rrect;rSize=0;strokeColor=#999999;fontColor=#999999;" vertex="1" parent="ionqRGrCN8myQI989uEd-117">
          <mxGeometry x="157.5" y="54.857142857142854" width="35" height="22.857142857142858" as="geometry" />
        </mxCell>
        <mxCell id="ionqRGrCN8myQI989uEd-133" value="6" style="strokeWidth=1;shadow=0;dashed=0;align=center;html=1;shape=mxgraph.mockup.forms.rrect;rSize=0;strokeColor=#999999;fontColor=#999999;" vertex="1" parent="ionqRGrCN8myQI989uEd-117">
          <mxGeometry x="192.5" y="54.857142857142854" width="35" height="22.857142857142858" as="geometry" />
        </mxCell>
        <mxCell id="ionqRGrCN8myQI989uEd-134" value="7" style="strokeWidth=1;shadow=0;dashed=0;align=center;html=1;shape=mxgraph.mockup.forms.rrect;rSize=0;strokeColor=#999999;fontColor=#999999;" vertex="1" parent="ionqRGrCN8myQI989uEd-117">
          <mxGeometry x="227.49999999999997" y="54.857142857142854" width="35" height="22.857142857142858" as="geometry" />
        </mxCell>
        <mxCell id="ionqRGrCN8myQI989uEd-135" value="8" style="strokeWidth=1;shadow=0;dashed=0;align=center;html=1;shape=mxgraph.mockup.forms.rrect;rSize=0;strokeColor=#999999;fontColor=#999999;" vertex="1" parent="ionqRGrCN8myQI989uEd-117">
          <mxGeometry x="17.5" y="77.71428571428571" width="35" height="22.857142857142858" as="geometry" />
        </mxCell>
        <mxCell id="ionqRGrCN8myQI989uEd-136" value="9" style="strokeWidth=1;shadow=0;dashed=0;align=center;html=1;shape=mxgraph.mockup.forms.rrect;rSize=0;strokeColor=#999999;fontColor=#999999;" vertex="1" parent="ionqRGrCN8myQI989uEd-117">
          <mxGeometry x="52.5" y="77.71428571428571" width="35" height="22.857142857142858" as="geometry" />
        </mxCell>
        <mxCell id="ionqRGrCN8myQI989uEd-137" value="10" style="strokeWidth=1;shadow=0;dashed=0;align=center;html=1;shape=mxgraph.mockup.forms.rrect;rSize=0;strokeColor=#999999;fontColor=#999999;" vertex="1" parent="ionqRGrCN8myQI989uEd-117">
          <mxGeometry x="87.49999999999999" y="77.71428571428571" width="35" height="22.857142857142858" as="geometry" />
        </mxCell>
        <mxCell id="ionqRGrCN8myQI989uEd-138" value="11" style="strokeWidth=1;shadow=0;dashed=0;align=center;html=1;shape=mxgraph.mockup.forms.rrect;rSize=0;strokeColor=#999999;fontColor=#999999;" vertex="1" parent="ionqRGrCN8myQI989uEd-117">
          <mxGeometry x="122.49999999999999" y="77.71428571428571" width="35" height="22.857142857142858" as="geometry" />
        </mxCell>
        <mxCell id="ionqRGrCN8myQI989uEd-139" value="12" style="strokeWidth=1;shadow=0;dashed=0;align=center;html=1;shape=mxgraph.mockup.forms.rrect;rSize=0;strokeColor=#999999;fontColor=#999999;" vertex="1" parent="ionqRGrCN8myQI989uEd-117">
          <mxGeometry x="157.5" y="77.71428571428571" width="35" height="22.857142857142858" as="geometry" />
        </mxCell>
        <mxCell id="ionqRGrCN8myQI989uEd-140" value="13" style="strokeWidth=1;shadow=0;dashed=0;align=center;html=1;shape=mxgraph.mockup.forms.rrect;rSize=0;strokeColor=#999999;fontColor=#999999;" vertex="1" parent="ionqRGrCN8myQI989uEd-117">
          <mxGeometry x="192.5" y="77.71428571428571" width="35" height="22.857142857142858" as="geometry" />
        </mxCell>
        <mxCell id="ionqRGrCN8myQI989uEd-141" value="14" style="strokeWidth=1;shadow=0;dashed=0;align=center;html=1;shape=mxgraph.mockup.forms.rrect;rSize=0;strokeColor=#999999;fontColor=#999999;" vertex="1" parent="ionqRGrCN8myQI989uEd-117">
          <mxGeometry x="227.49999999999997" y="77.71428571428571" width="35" height="22.857142857142858" as="geometry" />
        </mxCell>
        <mxCell id="ionqRGrCN8myQI989uEd-142" value="15" style="strokeWidth=1;shadow=0;dashed=0;align=center;html=1;shape=mxgraph.mockup.forms.rrect;rSize=0;strokeColor=#999999;fontColor=#999999;" vertex="1" parent="ionqRGrCN8myQI989uEd-117">
          <mxGeometry x="17.5" y="100.57142857142856" width="35" height="22.857142857142858" as="geometry" />
        </mxCell>
        <mxCell id="ionqRGrCN8myQI989uEd-143" value="16" style="strokeWidth=1;shadow=0;dashed=0;align=center;html=1;shape=mxgraph.mockup.forms.rrect;rSize=0;strokeColor=#999999;fontColor=#999999;" vertex="1" parent="ionqRGrCN8myQI989uEd-117">
          <mxGeometry x="52.5" y="100.57142857142856" width="35" height="22.857142857142858" as="geometry" />
        </mxCell>
        <mxCell id="ionqRGrCN8myQI989uEd-144" value="17" style="strokeWidth=1;shadow=0;dashed=0;align=center;html=1;shape=mxgraph.mockup.forms.rrect;rSize=0;strokeColor=#999999;fontColor=#999999;" vertex="1" parent="ionqRGrCN8myQI989uEd-117">
          <mxGeometry x="87.49999999999999" y="100.57142857142856" width="35" height="22.857142857142858" as="geometry" />
        </mxCell>
        <mxCell id="ionqRGrCN8myQI989uEd-145" value="18" style="strokeWidth=1;shadow=0;dashed=0;align=center;html=1;shape=mxgraph.mockup.forms.rrect;rSize=0;strokeColor=#999999;fontColor=#999999;" vertex="1" parent="ionqRGrCN8myQI989uEd-117">
          <mxGeometry x="122.49999999999999" y="100.57142857142856" width="35" height="22.857142857142858" as="geometry" />
        </mxCell>
        <mxCell id="ionqRGrCN8myQI989uEd-146" value="19" style="strokeWidth=1;shadow=0;dashed=0;align=center;html=1;shape=mxgraph.mockup.forms.rrect;rSize=0;strokeColor=#999999;fontColor=#999999;" vertex="1" parent="ionqRGrCN8myQI989uEd-117">
          <mxGeometry x="157.5" y="100.57142857142856" width="35" height="22.857142857142858" as="geometry" />
        </mxCell>
        <mxCell id="ionqRGrCN8myQI989uEd-147" value="20" style="strokeWidth=1;shadow=0;dashed=0;align=center;html=1;shape=mxgraph.mockup.forms.rrect;rSize=0;strokeColor=#999999;fontColor=#999999;" vertex="1" parent="ionqRGrCN8myQI989uEd-117">
          <mxGeometry x="192.5" y="100.57142857142856" width="35" height="22.857142857142858" as="geometry" />
        </mxCell>
        <mxCell id="ionqRGrCN8myQI989uEd-148" value="21" style="strokeWidth=1;shadow=0;dashed=0;align=center;html=1;shape=mxgraph.mockup.forms.rrect;rSize=0;strokeColor=#999999;fontColor=#999999;" vertex="1" parent="ionqRGrCN8myQI989uEd-117">
          <mxGeometry x="227.49999999999997" y="100.57142857142856" width="35" height="22.857142857142858" as="geometry" />
        </mxCell>
        <mxCell id="ionqRGrCN8myQI989uEd-149" value="22" style="strokeWidth=1;shadow=0;dashed=0;align=center;html=1;shape=mxgraph.mockup.forms.rrect;rSize=0;strokeColor=#999999;fontColor=#999999;" vertex="1" parent="ionqRGrCN8myQI989uEd-117">
          <mxGeometry x="17.5" y="123.4285714285714" width="35" height="22.857142857142858" as="geometry" />
        </mxCell>
        <mxCell id="ionqRGrCN8myQI989uEd-150" value="23" style="strokeWidth=1;shadow=0;dashed=0;align=center;html=1;shape=mxgraph.mockup.forms.rrect;rSize=0;strokeColor=#999999;fontColor=#999999;" vertex="1" parent="ionqRGrCN8myQI989uEd-117">
          <mxGeometry x="52.5" y="123.4285714285714" width="35" height="22.857142857142858" as="geometry" />
        </mxCell>
        <mxCell id="ionqRGrCN8myQI989uEd-151" value="25" style="strokeWidth=1;shadow=0;dashed=0;align=center;html=1;shape=mxgraph.mockup.forms.rrect;rSize=0;strokeColor=#999999;fontColor=#999999;" vertex="1" parent="ionqRGrCN8myQI989uEd-117">
          <mxGeometry x="122.49999999999999" y="123.4285714285714" width="35" height="22.857142857142858" as="geometry" />
        </mxCell>
        <mxCell id="ionqRGrCN8myQI989uEd-152" value="26" style="strokeWidth=1;shadow=0;dashed=0;align=center;html=1;shape=mxgraph.mockup.forms.rrect;rSize=0;strokeColor=#999999;fontColor=#999999;" vertex="1" parent="ionqRGrCN8myQI989uEd-117">
          <mxGeometry x="157.5" y="123.4285714285714" width="35" height="22.857142857142858" as="geometry" />
        </mxCell>
        <mxCell id="ionqRGrCN8myQI989uEd-153" value="27" style="strokeWidth=1;shadow=0;dashed=0;align=center;html=1;shape=mxgraph.mockup.forms.rrect;rSize=0;strokeColor=#999999;fontColor=#999999;" vertex="1" parent="ionqRGrCN8myQI989uEd-117">
          <mxGeometry x="192.5" y="123.4285714285714" width="35" height="22.857142857142858" as="geometry" />
        </mxCell>
        <mxCell id="ionqRGrCN8myQI989uEd-154" value="28" style="strokeWidth=1;shadow=0;dashed=0;align=center;html=1;shape=mxgraph.mockup.forms.rrect;rSize=0;strokeColor=#999999;fontColor=#999999;" vertex="1" parent="ionqRGrCN8myQI989uEd-117">
          <mxGeometry x="227.49999999999997" y="123.4285714285714" width="35" height="22.857142857142858" as="geometry" />
        </mxCell>
        <mxCell id="ionqRGrCN8myQI989uEd-155" value="29" style="strokeWidth=1;shadow=0;dashed=0;align=center;html=1;shape=mxgraph.mockup.forms.rrect;rSize=0;strokeColor=#999999;fontColor=#999999;" vertex="1" parent="ionqRGrCN8myQI989uEd-117">
          <mxGeometry x="17.5" y="146.28571428571428" width="35" height="22.857142857142858" as="geometry" />
        </mxCell>
        <mxCell id="ionqRGrCN8myQI989uEd-156" value="30" style="strokeWidth=1;shadow=0;dashed=0;align=center;html=1;shape=mxgraph.mockup.forms.rrect;rSize=0;strokeColor=#999999;fontColor=#999999;" vertex="1" parent="ionqRGrCN8myQI989uEd-117">
          <mxGeometry x="52.5" y="146.28571428571428" width="35" height="22.857142857142858" as="geometry" />
        </mxCell>
        <mxCell id="ionqRGrCN8myQI989uEd-157" value="31" style="strokeWidth=1;shadow=0;dashed=0;align=center;html=1;shape=mxgraph.mockup.forms.rrect;rSize=0;strokeColor=#999999;fontColor=#999999;" vertex="1" parent="ionqRGrCN8myQI989uEd-117">
          <mxGeometry x="87.49999999999999" y="146.28571428571428" width="35" height="22.857142857142858" as="geometry" />
        </mxCell>
        <mxCell id="ionqRGrCN8myQI989uEd-158" value="1" style="strokeWidth=1;shadow=0;dashed=0;align=center;html=1;shape=mxgraph.mockup.forms.rrect;rSize=0;strokeColor=#999999;fontColor=#999999;fillColor=#ddeeff;" vertex="1" parent="ionqRGrCN8myQI989uEd-117">
          <mxGeometry x="122.49999999999999" y="146.28571428571428" width="35" height="22.857142857142858" as="geometry" />
        </mxCell>
        <mxCell id="ionqRGrCN8myQI989uEd-159" value="2" style="strokeWidth=1;shadow=0;dashed=0;align=center;html=1;shape=mxgraph.mockup.forms.rrect;rSize=0;strokeColor=#999999;fontColor=#999999;fillColor=#ddeeff;" vertex="1" parent="ionqRGrCN8myQI989uEd-117">
          <mxGeometry x="157.5" y="146.28571428571428" width="35" height="22.857142857142858" as="geometry" />
        </mxCell>
        <mxCell id="ionqRGrCN8myQI989uEd-160" value="3" style="strokeWidth=1;shadow=0;dashed=0;align=center;html=1;shape=mxgraph.mockup.forms.rrect;rSize=0;strokeColor=#999999;fontColor=#999999;fillColor=#ddeeff;" vertex="1" parent="ionqRGrCN8myQI989uEd-117">
          <mxGeometry x="192.5" y="146.28571428571428" width="35" height="22.857142857142858" as="geometry" />
        </mxCell>
        <mxCell id="ionqRGrCN8myQI989uEd-161" value="4" style="strokeWidth=1;shadow=0;dashed=0;align=center;html=1;shape=mxgraph.mockup.forms.rrect;rSize=0;strokeColor=#999999;fontColor=#999999;fillColor=#ddeeff;" vertex="1" parent="ionqRGrCN8myQI989uEd-117">
          <mxGeometry x="227.49999999999997" y="146.28571428571428" width="35" height="22.857142857142858" as="geometry" />
        </mxCell>
        <mxCell id="ionqRGrCN8myQI989uEd-162" value="5" style="strokeWidth=1;shadow=0;dashed=0;align=center;html=1;shape=mxgraph.mockup.forms.rrect;rSize=0;strokeColor=#999999;fontColor=#999999;fillColor=#ddeeff;" vertex="1" parent="ionqRGrCN8myQI989uEd-117">
          <mxGeometry x="17.5" y="169.14285714285714" width="35" height="22.857142857142858" as="geometry" />
        </mxCell>
        <mxCell id="ionqRGrCN8myQI989uEd-163" value="6" style="strokeWidth=1;shadow=0;dashed=0;align=center;html=1;shape=mxgraph.mockup.forms.rrect;rSize=0;strokeColor=#999999;fontColor=#999999;fillColor=#ddeeff;" vertex="1" parent="ionqRGrCN8myQI989uEd-117">
          <mxGeometry x="52.5" y="169.14285714285714" width="35" height="22.857142857142858" as="geometry" />
        </mxCell>
        <mxCell id="ionqRGrCN8myQI989uEd-164" value="7" style="strokeWidth=1;shadow=0;dashed=0;align=center;html=1;shape=mxgraph.mockup.forms.rrect;rSize=0;strokeColor=#999999;fontColor=#999999;fillColor=#ddeeff;" vertex="1" parent="ionqRGrCN8myQI989uEd-117">
          <mxGeometry x="87.49999999999999" y="169.14285714285714" width="35" height="22.857142857142858" as="geometry" />
        </mxCell>
        <mxCell id="ionqRGrCN8myQI989uEd-165" value="8" style="strokeWidth=1;shadow=0;dashed=0;align=center;html=1;shape=mxgraph.mockup.forms.rrect;rSize=0;strokeColor=#999999;fontColor=#999999;fillColor=#ddeeff;" vertex="1" parent="ionqRGrCN8myQI989uEd-117">
          <mxGeometry x="122.49999999999999" y="169.14285714285714" width="35" height="22.857142857142858" as="geometry" />
        </mxCell>
        <mxCell id="ionqRGrCN8myQI989uEd-166" value="9" style="strokeWidth=1;shadow=0;dashed=0;align=center;html=1;shape=mxgraph.mockup.forms.rrect;rSize=0;strokeColor=#999999;fontColor=#999999;fillColor=#ddeeff;" vertex="1" parent="ionqRGrCN8myQI989uEd-117">
          <mxGeometry x="157.5" y="169.14285714285714" width="35" height="22.857142857142858" as="geometry" />
        </mxCell>
        <mxCell id="ionqRGrCN8myQI989uEd-167" value="10" style="strokeWidth=1;shadow=0;dashed=0;align=center;html=1;shape=mxgraph.mockup.forms.rrect;rSize=0;strokeColor=#999999;fontColor=#999999;fillColor=#ddeeff;" vertex="1" parent="ionqRGrCN8myQI989uEd-117">
          <mxGeometry x="192.5" y="169.14285714285714" width="35" height="22.857142857142858" as="geometry" />
        </mxCell>
        <mxCell id="ionqRGrCN8myQI989uEd-168" value="11" style="strokeWidth=1;shadow=0;dashed=0;align=center;html=1;shape=mxgraph.mockup.forms.rrect;rSize=0;strokeColor=#999999;fontColor=#999999;fillColor=#ddeeff;" vertex="1" parent="ionqRGrCN8myQI989uEd-117">
          <mxGeometry x="227.49999999999997" y="169.14285714285714" width="35" height="22.857142857142858" as="geometry" />
        </mxCell>
        <mxCell id="ionqRGrCN8myQI989uEd-169" value="24" style="strokeWidth=1;shadow=0;align=center;shape=mxgraph.mockup.forms.rrect;rSize=0;strokeColor=none;fontColor=#999999;strokeWidth=2;fillColor=#FFFFFF;html=1;labelBorderColor=none;" vertex="1" parent="ionqRGrCN8myQI989uEd-117">
          <mxGeometry x="93.75" y="126.71000000000001" width="22.5" height="16.29" as="geometry" />
        </mxCell>
        <mxCell id="ionqRGrCN8myQI989uEd-170" value="Procedure date (Optional)" style="html=1;shadow=0;dashed=0;shape=mxgraph.bootstrap.rect;strokeColor=none;fillColor=none;fontColor=#999999;align=left;spacingLeft=5;whiteSpace=wrap;rounded=0;" vertex="1" parent="1">
          <mxGeometry x="560" y="560" width="150" height="20" as="geometry" />
        </mxCell>
        <mxCell id="ionqRGrCN8myQI989uEd-171" value="&lt;font style=&quot;font-size: 14px;&quot; face=&quot;Verdana&quot; color=&quot;#006600&quot;&gt;&lt;b&gt;1. Search Address / Procedure Date&lt;br&gt;&lt;/b&gt;&lt;/font&gt;" style="text;html=1;align=left;verticalAlign=middle;whiteSpace=wrap;rounded=0;" vertex="1" parent="1">
          <mxGeometry x="40" y="520" width="800" height="40" as="geometry" />
        </mxCell>
        <mxCell id="ionqRGrCN8myQI989uEd-172" value="&lt;font style=&quot;font-size: 14px;&quot; color=&quot;#404040&quot;&gt;Display results:&lt;br&gt;&lt;/font&gt;" style="html=1;shadow=0;dashed=0;shape=mxgraph.bootstrap.rect;strokeColor=none;fillColor=none;fontColor=#999999;align=left;spacingLeft=5;whiteSpace=wrap;rounded=0;" vertex="1" parent="1">
          <mxGeometry x="560.18" y="860" width="151.79" height="20" as="geometry" />
        </mxCell>
        <mxCell id="ionqRGrCN8myQI989uEd-173" value="10" style="html=1;shadow=0;dashed=0;shape=mxgraph.bootstrap.rrect;rSize=5;strokeColor=#505050;strokeWidth=1;fillColor=#ffffff;fontColor=#777777;whiteSpace=wrap;align=left;verticalAlign=middle;fontStyle=0;fontSize=14;spacingRight=0;spacing=17;" vertex="1" parent="1">
          <mxGeometry x="560" y="880" width="280" height="40" as="geometry" />
        </mxCell>
        <mxCell id="ionqRGrCN8myQI989uEd-174" value="" style="shape=triangle;direction=south;fillColor=#495057;strokeColor=none;perimeter=none;" vertex="1" parent="ionqRGrCN8myQI989uEd-173">
          <mxGeometry x="1" y="0.5" width="10" height="5" relative="1" as="geometry">
            <mxPoint x="-17" y="-2.5" as="offset" />
          </mxGeometry>
        </mxCell>
        <mxCell id="ionqRGrCN8myQI989uEd-175" value="" style="shape=rect;fontSize=24;fillColor=#f0f0f0;strokeColor=none;fontColor=#999999;whiteSpace=wrap;" vertex="1" parent="1">
          <mxGeometry x="865" y="155" width="320" height="200" as="geometry" />
        </mxCell>
        <mxCell id="ionqRGrCN8myQI989uEd-176" value="Searching Patient Record" style="html=1;shadow=0;dashed=0;shape=mxgraph.bootstrap.anchor;fontSize=26;align=left;whiteSpace=wrap;" vertex="1" parent="1">
          <mxGeometry x="875" y="370" width="300" height="40" as="geometry" />
        </mxCell>
        <mxCell id="ionqRGrCN8myQI989uEd-177" value="&lt;div&gt;1. Type in patient&#39;s first name&lt;/div&gt;&lt;div&gt;2. Type in any other supporting details&lt;/div&gt;&lt;div&gt;3. Click Submit&lt;br&gt;&lt;/div&gt;" style="html=1;shadow=0;dashed=0;shape=mxgraph.bootstrap.anchor;strokeColor=#dddddd;whiteSpace=wrap;align=left;verticalAlign=top;fontSize=14;whiteSpace=wrap;" vertex="1" parent="1">
          <mxGeometry x="875" y="410" width="300" height="80" as="geometry" />
        </mxCell>
        <mxCell id="ionqRGrCN8myQI989uEd-178" value="" style="image;sketch=0;aspect=fixed;html=1;points=[];align=center;fontSize=12;image=img/lib/mscae/Search.svg;" vertex="1" parent="1">
          <mxGeometry x="950" y="180" width="150" height="150" as="geometry" />
        </mxCell>
        <mxCell id="ionqRGrCN8myQI989uEd-179" value="" style="shape=rect;fontSize=24;fillColor=#f0f0f0;strokeColor=none;fontColor=#999999;whiteSpace=wrap;" vertex="1" parent="1">
          <mxGeometry x="865" y="525" width="320" height="200" as="geometry" />
        </mxCell>
        <mxCell id="ionqRGrCN8myQI989uEd-180" value="Managing Patient Record" style="html=1;shadow=0;dashed=0;shape=mxgraph.bootstrap.anchor;fontSize=26;align=left;whiteSpace=wrap;" vertex="1" parent="1">
          <mxGeometry x="875" y="740" width="300" height="40" as="geometry" />
        </mxCell>
        <mxCell id="ionqRGrCN8myQI989uEd-181" value="&lt;div&gt;1. Find corresponding patient record&lt;/div&gt;&lt;div&gt;2. Edit patient information&lt;/div&gt;&lt;div&gt;3. Create &quot;Reason of change&quot; note&lt;/div&gt;&lt;div&gt;4. Submit change request&lt;/div&gt;&lt;div&gt;5. You will receive &quot;Accepted&quot; or &quot;Denied&quot; response from management&lt;br&gt;&lt;/div&gt;" style="html=1;shadow=0;dashed=0;shape=mxgraph.bootstrap.anchor;strokeColor=#dddddd;whiteSpace=wrap;align=left;verticalAlign=top;fontSize=14;whiteSpace=wrap;" vertex="1" parent="1">
          <mxGeometry x="875" y="780" width="300" height="110" as="geometry" />
        </mxCell>
        <mxCell id="ionqRGrCN8myQI989uEd-182" value="" style="sketch=0;outlineConnect=0;fontColor=#232F3E;gradientColor=none;fillColor=#8C4FFF;strokeColor=none;dashed=0;verticalLabelPosition=bottom;verticalAlign=top;align=center;html=1;fontSize=12;fontStyle=0;aspect=fixed;pointerEvents=1;shape=mxgraph.aws4.search_documents;" vertex="1" parent="1">
          <mxGeometry x="959.62" y="550" width="130.77" height="150" as="geometry" />
        </mxCell>
        <mxCell id="ionqRGrCN8myQI989uEd-183" value="&lt;font style=&quot;font-size: 18px;&quot; color=&quot;#006600&quot; face=&quot;Verdana&quot;&gt;&lt;b&gt;Patient Record Management&lt;br&gt;&lt;/b&gt;&lt;/font&gt;" style="text;html=1;align=center;verticalAlign=middle;whiteSpace=wrap;rounded=0;fillColor=#f5f5f5;strokeColor=#666666;fontColor=#333333;" vertex="1" parent="1">
          <mxGeometry x="40" y="155" width="810" height="40" as="geometry" />
        </mxCell>
        <mxCell id="ionqRGrCN8myQI989uEd-184" value="(2) records found. Time spent: 0.018 seconds" style="html=1;shadow=0;dashed=0;shape=mxgraph.bootstrap.rect;strokeColor=none;fillColor=none;fontColor=#404040;align=left;spacingLeft=5;whiteSpace=wrap;rounded=0;" vertex="1" parent="1">
          <mxGeometry x="40" y="940" width="800" height="20" as="geometry" />
        </mxCell>
        <mxCell id="ionqRGrCN8myQI989uEd-116" value="" style="shape=triangle;direction=south;fillColor=#495057;strokeColor=none;perimeter=none;" vertex="1" parent="1">
          <mxGeometry x="500" y="675" width="10" height="10" as="geometry">
            <mxPoint x="-17" y="-2.5" as="offset" />
          </mxGeometry>
        </mxCell>
      </root>
    </mxGraphModel>
  </diagram>
</mxfile>
